<?xml version="1.0" encoding="utf-8"?>
<!-- Generator: Adobe Illustrator 24.3.0, SVG Export Plug-In . SVG Version: 6.00 Build 0)  -->
<svg version="1.1" id="Layer_1" xmlns="http://www.w3.org/2000/svg" xmlns:xlink="http://www.w3.org/1999/xlink" x="0px" y="0px"
	 viewBox="0 0 25.3 25" style="enable-background:new 0 0 25.3 25;" xml:space="preserve">
<style type="text/css">
	.st_arrow{fill:#F15A29;}
</style>
<g>
	<g>
		<path class="st_arrow" d="M18.7,8.4h-16c-0.6,0-1.1-0.5-1.1-1.1s0.5-1.1,1.1-1.1h16c0.6,0,1.1,0.5,1.1,1.1C19.8,7.9,19.3,8.4,18.7,8.4z
			"/>
		<path class="st_arrow" d="M24.2,6.6l-6-3.5C17.7,2.8,17,3.2,17,3.8v6.9c0,0.6,0.7,1,1.2,0.7l6-3.5C24.7,7.6,24.7,6.9,24.2,6.6z"/>
	</g>
	<path class="st_arrow" d="M6.5,16.6h17c0.6,0,1.1,0.5,1.1,1.1s-0.5,1.1-1.1,1.1h-17c-0.6,0-1.1-0.5-1.1-1.1S5.9,16.6,6.5,16.6z"/>
	<path class="st_arrow" d="M1.1,18.4l6,3.5c0.5,0.3,1.2-0.1,1.2-0.7v-6.9c0-0.6-0.7-1-1.2-0.7l-6,3.5C0.5,17.3,0.5,18.1,1.1,18.4z"/>
</g>
</svg>
