<?xml version="1.0" encoding="utf-8"?>
<!-- Generator: Adobe Illustrator 24.3.0, SVG Export Plug-In . SVG Version: 6.00 Build 0)  -->
<svg version="1.1" id="Layer_1" xmlns="http://www.w3.org/2000/svg" xmlns:xlink="http://www.w3.org/1999/xlink" x="0px" y="0px"
	 viewBox="0 0 31.4 31" style="enable-background:new 0 0 31.4 31;" xml:space="preserve">
<style type="text/css">
	.st0{fill:#FFFFFF;}
	.st1{fill:#C5E1F6;}
</style>
<g id="RT60gB.tif">
	<g>
		<path class="st0" d="M8,16.3c0-3.7,0-7.3,0-11c0-1.6,1-2.6,2.6-2.6c3.4,0,6.8,0,10.2,0c1.6,0,2.6,1,2.6,2.6c0,7.4,0,14.8,0,22.1
			c0,0.7-0.2,0.9-0.9,0.9c-0.9,0-1.8,0-2.8,0c-0.6,0-0.8-0.2-0.8-0.8c0-2.2,0-4.3,0-6.5c0-0.7-0.2-0.9-0.9-0.9c-1.7,0-3.3,0-5,0
			c-0.6,0-0.8,0.2-0.8,0.8c0,2.2,0,4.3,0,6.5c0,0.6-0.2,0.8-0.8,0.8c-0.9,0-1.9,0-2.8,0c-0.6,0-0.8-0.2-0.8-0.8
			C8,23.8,8,20.1,8,16.3z M15.7,8.9c-1.1,0-2.2,0-3.4,0c-0.5,0-0.7,0.2-0.7,0.6c0,0.4,0.2,0.6,0.7,0.6c2.2,0,4.5,0,6.7,0
			c0.5,0,0.7-0.2,0.7-0.6c0-0.4-0.3-0.6-0.7-0.6C17.9,8.9,16.8,8.9,15.7,8.9z M15.7,15.9c0.8,0,1.5,0,2.3,0c0.5,0,0.7-0.2,0.7-0.6
			c0-0.4-0.3-0.6-0.7-0.6c-1.5,0-3.1,0-4.6,0c-0.5,0-0.7,0.2-0.7,0.6s0.3,0.6,0.7,0.6C14.2,15.9,14.9,15.9,15.7,15.9z"/>
		<path class="st0" d="M6.8,19.8c0,2.6,0,5.1,0,7.7c0,0.6-0.2,0.8-0.8,0.8c-1,0-2,0-3,0c-1.3,0-2.3-1-2.4-2.2c0-0.1,0-0.3,0-0.4
			c0-3.9,0-7.8,0-11.7c0-1.2,0.6-2.2,1.6-2.5c0.2-0.1,0.5-0.1,0.8-0.1c1,0,2,0,3,0c0.5,0,0.8,0.2,0.8,0.8
			C6.8,14.7,6.8,17.3,6.8,19.8L6.8,19.8z M4.7,18.7c0-0.4,0-0.8,0-1.2c0-0.4-0.2-0.6-0.6-0.7S3.5,17,3.5,17.4c0,0.9,0,1.7,0,2.6
			c0,0.4,0.3,0.6,0.6,0.6c0.3,0,0.6-0.3,0.6-0.6C4.7,19.5,4.7,19.1,4.7,18.7z"/>
		<path class="st0" d="M24.6,19.8c0-2.5,0-5.1,0-7.6c0-0.7,0.2-0.8,0.9-0.8c1,0,1.9,0,2.9,0c1.3,0,2.3,1,2.4,2.2c0,0.1,0,0.3,0,0.4
			c0,3.9,0,7.8,0,11.7c0,1.2-0.6,2.2-1.7,2.5c-0.2,0.1-0.5,0.1-0.8,0.1c-1,0-2,0-3,0c-0.6,0-0.8-0.2-0.8-0.8
			C24.6,25,24.6,22.4,24.6,19.8C24.6,19.8,24.6,19.8,24.6,19.8z M26.7,18.7c0,0.4,0,0.9,0,1.3c0,0.3,0.2,0.6,0.5,0.6
			c0.3,0,0.6-0.2,0.6-0.5c0-0.9,0-1.8,0-2.7c0-0.3-0.3-0.6-0.6-0.5s-0.5,0.3-0.5,0.6C26.7,17.9,26.7,18.3,26.7,18.7z"/>
		<path class="st1" d="M13.6,24.9c0-0.9,0-1.8,0-2.7c0-0.5,0.2-0.7,0.7-0.7c1,0,1.9,0,2.8,0c0.5,0,0.7,0.2,0.7,0.7
			c0,1.8,0,3.7,0,5.5c0,0.5-0.2,0.7-0.7,0.7c-1,0-1.9,0-2.9,0c-0.5,0-0.7-0.2-0.7-0.7C13.6,26.7,13.6,25.8,13.6,24.9z"/>
	</g>
</g>
</svg>
