<?xml version="1.0" encoding="utf-8"?>
<!-- Generator: Adobe Illustrator 24.3.0, SVG Export Plug-In . SVG Version: 6.00 Build 0)  -->
<svg version="1.1" id="Layer_1" xmlns="http://www.w3.org/2000/svg" xmlns:xlink="http://www.w3.org/1999/xlink" x="0px" y="0px"
	 viewBox="0 0 24.1 23.8" style="enable-background:new 0 0 24.1 23.8;" xml:space="preserve">
<style type="text/css">
	.st0{fill:#58595B;}
</style>
<g id="HNxUrL.tif">
	<g>
		<path class="st0" d="M12.2,2.5c0.4,0.1,0.5,0.4,0.5,0.8c0,0.6,0,1.1,0,1.7c0,0.5-0.3,0.8-0.8,0.7c-0.3,0-0.5-0.3-0.5-0.6
			c0-0.6,0-1.3,0-1.9c0-0.3,0.2-0.5,0.5-0.6C12,2.5,12.1,2.5,12.2,2.5z"/>
		<path class="st0" d="M2.6,11.8c0.1-0.4,0.4-0.5,0.8-0.5c0.6,0,1.1,0,1.7,0c0.5,0,0.8,0.3,0.7,0.8c0,0.3-0.3,0.5-0.6,0.5
			c-0.6,0-1.3,0-1.9,0c-0.3,0-0.5-0.2-0.6-0.5C2.6,12,2.6,11.9,2.6,11.8z"/>
		<path class="st0" d="M16.8,11.9c0,2.6-2.2,4.8-4.8,4.7c-2.6,0-4.7-2.2-4.7-4.7c0-2.6,2.2-4.8,4.7-4.7C14.7,7.2,16.8,9.3,16.8,11.9
			z"/>
		<path class="st0" d="M19.8,12.6c-0.3,0-0.6,0-0.9,0c-0.4,0-0.7-0.3-0.7-0.7c0-0.4,0.3-0.7,0.7-0.7c0.6,0,1.2,0,1.8,0
			c0.4,0,0.7,0.3,0.7,0.7c0,0.4-0.3,0.7-0.7,0.7C20.4,12.6,20.1,12.6,19.8,12.6z"/>
		<path class="st0" d="M11.4,19.7c0-0.3,0-0.6,0-0.9c0-0.4,0.3-0.7,0.7-0.7s0.7,0.3,0.7,0.7c0,0.6,0,1.2,0,1.8
			c0,0.4-0.3,0.7-0.7,0.7s-0.7-0.3-0.7-0.7C11.4,20.3,11.4,20,11.4,19.7z"/>
		<path class="st0" d="M16.3,7c0-0.1,0.1-0.2,0.2-0.3c0.4-0.5,0.9-0.9,1.3-1.3c0.3-0.3,0.7-0.3,0.9,0s0.3,0.6,0,0.9
			c-0.5,0.5-0.9,0.9-1.4,1.4c-0.2,0.2-0.5,0.3-0.7,0.1C16.4,7.5,16.3,7.3,16.3,7z"/>
		<path class="st0" d="M7.8,16.8c0,0.1-0.1,0.2-0.2,0.3c-0.5,0.5-0.9,0.9-1.4,1.4c-0.3,0.3-0.6,0.2-0.9,0c-0.2-0.2-0.3-0.6,0-0.9
			c0.5-0.5,0.9-0.9,1.4-1.4C7,16.1,7.2,16,7.5,16.2C7.7,16.3,7.8,16.5,7.8,16.8z"/>
		<path class="st0" d="M7.8,7c0,0.4-0.1,0.6-0.4,0.7C7.2,7.8,7,7.7,6.8,7.6C6.5,7.3,6.3,7.1,6.1,6.9C5.9,6.6,5.6,6.4,5.4,6.2
			C5.2,5.9,5.1,5.7,5.3,5.4C5.4,5.2,5.6,5,5.9,5.1c0.1,0,0.3,0.1,0.4,0.2c0.5,0.4,0.9,0.9,1.4,1.4C7.7,6.7,7.8,6.9,7.8,7z"/>
		<path class="st0" d="M18.9,18c0,0.3-0.1,0.5-0.4,0.6c-0.2,0.1-0.5,0.1-0.7-0.1c-0.5-0.5-1-1-1.5-1.5c-0.2-0.2-0.2-0.6,0-0.8
			c0.2-0.2,0.6-0.3,0.8,0c0.5,0.5,1,1,1.5,1.5C18.8,17.8,18.9,18,18.9,18z"/>
	</g>
</g>
</svg>
