<svg version="1.2" xmlns="http://www.w3.org/2000/svg" viewBox="0 0 80 80" width="80" height="80">
	<title>sun2-svg</title>
	<style>
		.s0 { fill: #58595b } 
	</style>
	<g id="_x36_4zJ4o.tif">
		<g id="Layer">
			<path id="Layer" class="s0" d="m29.1 72.5c-0.8-0.2-1.6-0.4-2.4-0.6-5.5-1.8-9.1-7.1-8.7-12.9 0.4-5.7 4.7-10.5 10.4-11.4 0.2-0.1 0.4-0.1 0.6-0.2 0.1-2.2 0.5-4.4 1.5-6.4 2.9-6.2 7.8-9.7 14.6-10 7.2-0.2 12.5 3.2 15.8 9.6 0.3 0.7 0.6 0.8 1.2 0.8 7.3-0.3 13.8 4.9 15.5 12 2 8.5-3.7 17.2-12.1 18.8-0.5 0.1-0.9 0.2-1.3 0.3q-17.6 0-35.1 0z"/>
			<path id="Layer" class="s0" d="m2.1 23.1c1-1.7 2-2 3.8-1 1.1 0.6 2.2 1.2 3.2 1.9 1.3 0.7 1.6 2 1 3.1-0.7 1.1-2 1.4-3.3 0.7q-1.5-0.9-3-1.7c-0.8-0.5-1.4-1-1.8-1.8 0.1-0.4 0.1-0.8 0.1-1.2z"/>
			<path id="Layer" class="s0" d="m2.1 52.2c0.3-0.8 0.8-1.3 1.6-1.7 1.1-0.6 2.1-1.2 3.2-1.8 1.2-0.7 2.5-0.4 3.2 0.7 0.7 1.1 0.3 2.4-0.9 3.2-1.1 0.6-2.1 1.1-3.2 1.8-1.8 1.1-2.8 0.8-3.9-1 0-0.4 0-0.8 0-1.2z"/>
			<path id="Layer" class="s0" d="m42.9 26.6c-1.7 0.5-3.3 0.8-4.8 1.4-7 2.9-11.3 8-13 15.3-0.1 0.4-0.3 0.7-0.7 0.8-3.1 1.2-5.6 3.1-7.6 5.7-0.1 0.2-0.2 0.3-0.4 0.6-4.2-4.8-5.8-10.3-4.2-16.5 1.8-7.1 6.5-11.6 13.7-13.1 6.7-1.3 12.4 0.8 17 5.8z"/>
			<path id="Layer" class="s0" d="m50.9 28.2c-1.1 0-2-0.6-2.3-1.5-0.3-1 0-2 0.9-2.5 1.4-0.9 2.8-1.7 4.2-2.5 1-0.5 2.2-0.1 2.8 0.8 0.6 1 0.5 2.3-0.5 3-1.4 0.9-2.9 1.7-4.4 2.5-0.3 0.2-0.6 0.2-0.7 0.2z"/>
			<path id="Layer" class="s0" d="m27.2 11.4c0-0.7 0-1.5 0-2.3 0.1-1.2 1-2.1 2.2-2.1 1.2 0 2.3 0.9 2.3 2.1 0.1 1.6 0 3.1 0 4.7 0 1.2-1.1 2.1-2.3 2.1-1.2 0-2.1-0.9-2.2-2.2 0-0.8 0-1.5 0-2.3z"/>
		</g>
	</g>
</svg>