<?xml version="1.0" encoding="utf-8"?>
<!-- Generator: Adobe Illustrator 24.3.0, SVG Export Plug-In . SVG Version: 6.00 Build 0)  -->
<svg version="1.0" id="Layer_1" xmlns="http://www.w3.org/2000/svg" xmlns:xlink="http://www.w3.org/1999/xlink" x="0px" y="0px"
	 viewBox="0 0 79.94 79.07" style="enable-background:new 0 0 79.94 79.07;" xml:space="preserve">
<style type="text/css">
	.st0{fill:#FFFFFF;}
	.st2{fill:#C5E1F6;}
	.st3{fill:#2E365E;stroke:#FFFFFF;stroke-miterlimit:10;}
	.st4{fill:#808285;}
	.st5{fill:#939598;}
	.st6{fill:#2E365E;}
	.st7{fill:#58595B;}
</style>
<g id="_x36_4zJ4o.tif">
	<g>
		<path class="st7" d="M36.61,48.87c-0.22-0.06-0.45-0.1-0.67-0.17c-1.58-0.5-2.6-2.01-2.49-3.67c0.11-1.62,1.36-2.99,2.98-3.26
			c0.05-0.01,0.11-0.03,0.17-0.04c0.02-0.64,0.13-1.26,0.41-1.84c0.83-1.75,2.22-2.76,4.16-2.83c2.06-0.07,3.56,0.89,4.5,2.73
			c0.09,0.18,0.18,0.22,0.36,0.22c2.06-0.07,3.93,1.39,4.41,3.43c0.57,2.4-1.04,4.9-3.46,5.35c-0.12,0.02-0.24,0.06-0.36,0.08
			C43.28,48.87,39.94,48.87,36.61,48.87z"/>
		<path class="st7" d="M28.92,34.81c0.28-0.51,0.59-0.59,1.1-0.3c0.3,0.17,0.61,0.35,0.91,0.53c0.35,0.21,0.46,0.58,0.27,0.9
			c-0.18,0.32-0.56,0.4-0.92,0.2c-0.29-0.17-0.58-0.34-0.88-0.5c-0.22-0.12-0.39-0.26-0.5-0.49C28.92,35.03,28.92,34.92,28.92,34.81
			z"/>
		<path class="st7" d="M28.92,43.08c0.09-0.22,0.25-0.36,0.46-0.47c0.31-0.17,0.61-0.35,0.91-0.52c0.35-0.2,0.73-0.11,0.92,0.2
			c0.19,0.32,0.07,0.69-0.27,0.9c-0.3,0.17-0.59,0.34-0.89,0.52c-0.53,0.31-0.82,0.23-1.12-0.29
			C28.92,43.31,28.92,43.19,28.92,43.08z"/>
		<path class="st7" d="M40.56,35.79c-0.48,0.14-0.94,0.23-1.38,0.41c-1.99,0.81-3.21,2.27-3.71,4.35c-0.03,0.13-0.08,0.19-0.2,0.23
			c-0.87,0.33-1.58,0.88-2.14,1.62c-0.04,0.05-0.08,0.1-0.13,0.17c-1.2-1.37-1.65-2.94-1.2-4.69c0.53-2.02,1.87-3.3,3.91-3.73
			C37.62,33.76,39.24,34.37,40.56,35.79z"/>
		<path class="st7" d="M42.84,36.24c-0.33,0-0.57-0.17-0.65-0.42c-0.09-0.27-0.01-0.57,0.24-0.72c0.39-0.24,0.79-0.48,1.2-0.7
			c0.28-0.15,0.64-0.03,0.81,0.24c0.17,0.27,0.12,0.65-0.16,0.83c-0.4,0.26-0.83,0.49-1.25,0.73
			C42.96,36.24,42.87,36.24,42.84,36.24z"/>
		<path class="st7" d="M36.09,31.47c0-0.22-0.01-0.44,0-0.65c0.02-0.36,0.28-0.61,0.63-0.61c0.34,0,0.63,0.25,0.64,0.6
			c0.02,0.44,0.01,0.89,0,1.33c-0.01,0.36-0.3,0.61-0.65,0.61c-0.34-0.01-0.6-0.26-0.62-0.62C36.08,31.9,36.09,31.69,36.09,31.47
			C36.09,31.47,36.09,31.47,36.09,31.47z"/>
	</g>
</g>
</svg>
