<svg version="1.2" xmlns="http://www.w3.org/2000/svg" viewBox="0 0 60 34" width="60" height="34">
	<title>visa_icon-svg</title>
	<style>
		.s0 { fill: #2e365e;stroke: #ffffff } 
		.s1 { fill: #c5e1f6 } 
		.s2 { fill: #ffffff } 
	</style>
	<g id="Layer">
		<rect id="Layer" class="s0" x="1.1" y="1.7" width="57.5" height="29.6" rx="3.8"></rect>
		<g id="voQOw7.tif">
			<path id="Layer" fill-rule="evenodd" class="s1" d="m51 23.7c-1 0-2 0-3.1 0-0.1 0-0.3-0.2-0.3-0.3-0.1-0.5-0.2-0.9-0.3-1.4 0-0.3-0.2-0.4-0.5-0.4q-1.9 0-3.9 0c-0.2 0-0.4 0.2-0.5 0.3-0.2 0.5-0.3 1-0.5 1.4-0.1 0.2-0.3 0.3-0.4 0.3-1.1 0-2.2 0-3.4 0 0.1-0.2 0.1-0.4 0.2-0.6 1.7-4 3.3-8 5-11.9 0.5-1.3 0.9-1.5 2.3-1.5 0.7 0 1.5 0 2.2 0 0.2 0 0.4 0.2 0.4 0.3 1 4.5 1.9 9 2.8 13.4 0 0.2 0 0.3 0 0.4zm-4.4-5c-0.4-1.7-0.7-3.4-1-5.1h-0.1c-0.6 1.7-1.2 3.3-1.9 5.1q1.5 0 3 0z"/>
			<path id="Layer" class="s2" d="m6.3 9.7c2.5 0 4.9 0 7.3 0 0.6 3.1 1.2 6.3 1.9 9.4h0.1c0.5-1.3 1-2.5 1.4-3.8 0.6-1.7 1.3-3.5 1.9-5.2 0.1-0.3 0.3-0.4 0.6-0.4 1.1 0 2.2 0 3.4 0-0.7 1.6-1.3 3.2-1.9 4.7-1.2 2.9-2.4 5.9-3.6 8.8-0.1 0.4-0.3 0.6-0.8 0.5q-1.4 0-2.7 0c-0.5 0-0.7-0.1-0.8-0.6-0.9-3.3-1.7-6.6-2.6-9.9-0.1-0.3-0.3-0.6-0.5-0.8-1.2-0.9-2.4-1.7-3.7-2.7z"/>
			<path id="Layer" class="s2" d="m28 23.2c0.2-1 0.3-2 0.5-3 1 0.3 2 0.6 3 0.7 0.7 0.1 1.4 0 2.1-0.2 0.5-0.1 0.9-0.5 0.9-1 0-0.5-0.2-0.9-0.7-1.2-0.7-0.4-1.5-0.8-2.2-1.3-1-0.6-1.8-1.3-2.1-2.5-0.3-1.6 0.2-2.9 1.4-3.9 1.4-1.2 3-1.6 4.8-1.5 0.9 0 1.8 0.3 2.7 0.4 0.3 0 0.4 0.2 0.3 0.5-0.2 0.8-0.3 1.7-0.4 2.5-0.8-0.2-1.5-0.5-2.3-0.5-0.7-0.1-1.3 0-2 0.2-0.4 0.1-0.8 0.4-0.9 0.9-0.1 0.5 0.2 0.8 0.6 1.1 0.5 0.3 1 0.6 1.6 0.9 0.4 0.2 0.7 0.4 1.1 0.6 2.8 1.8 2 5.1 0.3 6.5-1.4 1.1-3.1 1.4-4.9 1.4-1.2 0.1-2.5-0.1-3.8-0.6z"/>
			<path id="Layer" class="s2" d="m22.1 23.7c0.8-4.7 1.5-9.4 2.3-14q1.8 0 3.6 0-0.3 1.8-0.6 3.6c-0.5 3.3-1.1 6.5-1.6 9.8-0.1 0.4-0.2 0.6-0.6 0.6-1.1 0-2.1 0-3.1 0z"/>
		</g>
	</g>
</svg>