<svg version="1.2" xmlns="http://www.w3.org/2000/svg" viewBox="0 0 512 512" width="512" height="512">
	<title>x</title>
	<g id="Layer">
		<path id="Layer"  d="m141.6 120.4c2.2 1 11.8 10.3 58.2 56.8l55.8 55.6 55.8-55.9c62.2-62 57.5-57.8 65.1-57.8 4.6 0.1 7.7 1.3 10.9 4.5 3.2 3.2 4.5 6.4 4.5 11 0 7.5 4.3 2.8-57.9 64.9l-55.8 56 55.8 56c62.2 62.1 57.9 57.4 57.9 64.9 0 4.6-1.3 7.8-4.5 10.9-3.2 3.3-6.3 4.6-10.9 4.6-7.6 0-2.9 4.3-65-57.8l-55.9-55.9-55.9 55.9c-62.3 62.1-57.5 57.8-65.1 57.8-4.6 0-7.7-1.3-11-4.6-3.1-3.1-4.4-6.3-4.5-10.9 0-7.5-4.2-2.8 57.9-65l55.8-55.9-55.6-55.7c-45.4-45.4-55.9-56.1-56.7-58.2-3.9-8.8 0.2-18.6 9.3-21.9 3.3-1.1 8.2-0.9 11.8 0.7z"/>
	</g>
</svg>