<?xml version="1.0" encoding="utf-8"?>
<!-- Generator: Adobe Illustrator 24.3.0, SVG Export Plug-In . SVG Version: 6.00 Build 0)  -->
<svg version="1.1" id="Layer_1" xmlns="http://www.w3.org/2000/svg" xmlns:xlink="http://www.w3.org/1999/xlink" x="0px" y="0px"
	 viewBox="0 0 1920 485.5" style="enable-background:new 0 0 1920 485.5;" xml:space="preserve">
<style type="text/css">
	.st0{fill:none;stroke:#7F8EBF;stroke-width:2;stroke-miterlimit:10;}
</style>
<path class="st0" d="M1819.7,214c18.7-31.1,40.2-46.4,56-70.1c9.6-14.4,13.1-27.3,11.2-41.9c-5.2-38.6-42.5-57-78.8-57
	s-73.6,18.4-78.8,57c-2,14.6,1.6,27.4,11.2,41.9c15.7,23.7,37.3,39,56,70.1c1.1,1.9,3.7,2.3,5.8,2.6c2.2,0.3,4.4,0.4,6.6,0.4
	c2,0.1,3.9-0.1,5.9-0.4C1816.6,216.2,1818.6,215.7,1819.7,214z"/>
<path class="st0" d="M1811.8,45c-31.8,0-64.5,18.4-69,57c-1.7,14.6,1.4,27.4,9.8,41.9c12.4,21.3,28.9,35.8,44,61.1"/>
<path class="st0" d="M1807.4,45c-15.9,0-32.2,18.4-34.5,57c-0.9,14.1,0.8,28.3,4.9,41.9c6.2,21.3,14.9,37,22.4,62.2"/>
<path class="st0" d="M1803.5,45c31.8,0,64.5,18.4,69,57c1.7,14.6-1.4,27.4-9.8,41.9c-12.4,21.3-28.8,36.5-43.9,61.8"/>
<path class="st0" d="M1807.9,45c15.9,0,32.2,18.4,34.5,57c0.9,14.1-0.8,28.3-4.9,41.9c-6.2,21.3-15.2,36.7-22.7,62"/>
<line class="st0" x1="1807.4" y1="45" x2="1807.4" y2="206.1"/>
<path class="st0" d="M1788.6,202.1c3.8,3.4,12.4,4.7,18.9,4.7c6.2,0,13.6,0.2,18.9-3.2"/>
<path class="st0" d="M1813.9,236.8c0.2-3.2,0.4-6.3,0.6-9.4c-4.9,0.4-9.8,0.4-14.7-0.2c0.5,3,0.6,6.4,1.1,9.4
	C1805.1,238.3,1809.7,238.3,1813.9,236.8z"/>
<path class="st0" d="M1796.8,214.7l3.3,12.7"/>
<path class="st0" d="M1814.4,227.8c1.8-4.3,3.4-9.5,5.2-13.8"/>
<path class="st0" d="M1803.4,217.4l1.3,9.7"/>
<path class="st0" d="M1811.1,217.6c-0.3,3.1-0.7,6.2-1,9.4"/>
<path class="st0" d="M1679.3,204.9c3.7-6.2,8-9.2,11.2-14c1.8-2.4,2.6-5.4,2.2-8.3c-1-7.7-8.5-11.4-15.7-11.4s-14.7,3.7-15.7,11.4
	c-0.4,3,0.4,6,2.2,8.3c3.1,4.7,7.4,7.8,11.2,14c0.3,0.3,0.7,0.5,1.2,0.5c0.4,0.1,0.9,0.1,1.3,0.1c0.4,0,0.8,0,1.2-0.1
	C1678.7,205.4,1679,205.2,1679.3,204.9z"/>
<path class="st0" d="M1677.7,171.3c-6.3,0-12.8,3.7-13.8,11.4c-0.3,2.9,0.4,5.9,2,8.3c2.5,4.2,5.8,7.1,8.8,12.2"/>
<path class="st0" d="M1676.8,171.3c-3.2,0-6.4,3.7-6.9,11.4c-0.2,2.8,0.2,5.6,1,8.3c1.2,4.2,3,7.4,4.5,12.4"/>
<path class="st0" d="M1676.1,171.3c6.3,0,12.8,3.7,13.8,11.4c0.3,2.9-0.4,5.9-2,8.3c-2.5,4.2-5.7,7.3-8.8,12.3"/>
<path class="st0" d="M1676.9,171.3c3.2,0,6.4,3.7,6.9,11.4c0.2,2.8-0.2,5.6-1,8.3c-1.2,4.2-3,7.3-4.5,12.4"/>
<line class="st0" x1="1676.8" y1="171.3" x2="1676.8" y2="203.4"/>
<path class="st0" d="M1673.1,202.6c1.1,0.7,2.4,1,3.8,0.9c1.3,0.1,2.6-0.1,3.8-0.6"/>
<path class="st0" d="M1678.1,209.5c0-0.6,0.1-1.2,0.1-1.9c-1,0.1-2,0.1-2.9,0c0.1,0.6,0.1,1.3,0.2,1.9
	C1676.4,209.8,1677.3,209.8,1678.1,209.5z"/>
<path class="st0" d="M1674.7,205.1c0.2,0.8,0.4,1.7,0.7,2.5"/>
<path class="st0" d="M1678.2,207.7c0.4-0.9,0.7-1.9,1-2.8"/>
<path class="st0" d="M1676.1,205.6l0.3,1.9"/>
<path class="st0" d="M1677.6,205.7l-0.2,1.9"/>
<path class="st0" d="M181.3,129.3c9.5-15.8,20.4-23.5,28.4-35.5c4.9-7.3,6.6-13.8,5.6-21.2c-2.6-19.6-21.6-28.9-39.9-28.9
	s-37.3,9.3-39.9,28.9c-1,7.4,0.8,13.9,5.7,21.2c8,12,18.9,19.8,28.4,35.5c0.6,1,1.9,1.1,3,1.3c1.1,0.2,2.2,0.2,3.3,0.2
	c1,0,2,0,3-0.2C179.8,130.5,180.7,130.1,181.3,129.3z"/>
<path class="st0" d="M177.3,43.7c-16.1,0-32.7,9.3-35,28.9c-0.9,7.4,0.7,13.9,4.9,21.2c6.3,10.8,14.7,18.1,22.3,31"/>
<path class="st0" d="M175.1,43.7c-8,0-16.3,9.3-17.5,28.9c-0.5,7.2,0.4,14.4,2.5,21.2c3.1,10.8,7.6,18.7,11.4,31.5"/>
<path class="st0" d="M173.1,43.7c16.1,0,32.7,9.3,35,28.9c0.9,7.4-0.7,13.9-5,21.2c-6.3,10.8-14.6,18.5-22.2,31.3"/>
<path class="st0" d="M175.3,43.7c8,0,16.3,9.3,17.5,28.9c0.4,7.2-0.4,14.4-2.5,21.2c-3.1,10.8-7.7,18.6-11.5,31.4"/>
<line class="st0" x1="175.1" y1="43.7" x2="175.1" y2="125.3"/>
<path class="st0" d="M165.6,123.3c1.9,1.7,6.3,2.4,9.6,2.4s6.9,0.1,9.6-1.6"/>
<path class="st0" d="M178.4,140.9c0.1-1.6,0.2-3.2,0.3-4.8c-2.5,0.2-5,0.2-7.4-0.1c0.3,1.5,0.3,3.2,0.5,4.8
	C173.9,141.6,176.3,141.6,178.4,140.9z"/>
<path class="st0" d="M169.7,129.7l1.6,6.5"/>
<path class="st0" d="M178.7,136.3c0.9-2.2,1.7-4.8,2.6-7"/>
<path class="st0" d="M173.1,131l0.7,4.9"/>
<path class="st0" d="M177,131.1c-0.2,1.6-0.3,3.2-0.5,4.7"/>
<path class="st0" d="M1793.8,446.2c2.8-4.8,5.5-9,7.4-11.8c2.6,1.6,4.8,3.6,7.4,5.2"/>
<path class="st0" d="M1805.1,446.6c8.7-15.1,17.4-29.8,26.1-44.9c2,0.9,4.3,3.2,6.3,4c4.2-6.8,8.2-13.4,12.4-20.2l3.9,0.3
	c2,4.4,4.4,8.5,6.4,12.9c1.6,0,3.7-0.5,5.3-0.5c3,7.7,6,15.4,9.1,23.1"/>
<path class="st0" d="M1866.9,421.3l14.2,2.5c3.9,10.7,4.6,13.8,8.4,24.5"/>
<path class="st0" d="M1855.7,463.5c2.9-2.1,6.1-3.7,9.6-4.7c6.1-1.9,12.5-2.2,18.9-2.5c1.5-2.8,2.7-4.7,4.2-7.5c2,0,4.5-0.4,6.5-0.4
	c1.4,5.7,3.8,11.4,5.2,17.1c2,1,3.7,1.5,5.7,2.5c1.7,8.2,9.1,2,11.9,17.6"/>
<path class="st0" d="M1837.2,405.6c3,1.8,5.8,4,8.2,6.6c-1.4,2-2.7,4.1-4,6.1c4.7,5.5,9.8,11,14.4,16.5c-0.8,1.6-1.2,3.5-2,5.1
	c3.8,3.2,8,6.6,11.8,9.9c1.3,0.9,2.3,2.1,3,3.5c0.6,1.8,0.3,2.9-0.2,4.6"/>
<path class="st0" d="M1851.5,385.7c0-4,0.1-10.3,0.1-14.3c2.4,1.4,6.8,3.4,8.4,5.7c-1.8,1-6.1,1.9-8,2.5"/>
<line class="st0" x1="1621.3" y1="401.1" x2="1682.4" y2="401.1"/>
<line class="st0" x1="1621.3" y1="429.2" x2="1797.2" y2="429.2"/>
<line class="st0" x1="1621.3" y1="457.4" x2="1797.2" y2="457.4"/>
<line class="st0" x1="1621.3" y1="405.4" x2="1682.4" y2="405.4"/>
<line class="st0" x1="1621.3" y1="433.5" x2="1797.2" y2="433.5"/>
<line class="st0" x1="1621.3" y1="461.7" x2="1797.2" y2="461.7"/>
<polyline class="st0" points="1623.7,485.5 1623.7,374.6 1660.8,374.6 1697.2,429.2 "/>
<line class="st0" x1="1794.6" y1="485.5" x2="1794.6" y2="429.2"/>
<line class="st0" x1="1703.1" y1="429.2" x2="1721.9" y2="457.4"/>
<line class="st0" x1="1728.2" y1="457.4" x2="1746.9" y2="485.5"/>
<path class="st0" d="M1639.8,485.5v-14.4c0-2.8,2.3-5.1,5.1-5.1c2.8,0,5.1,2.3,5.1,5.1v14.4"/>
<path class="st0" d="M1664.9,485.5v-14.4c0.1-2.8,2.5-5,5.3-4.9c2.6,0.1,4.8,2.2,4.9,4.9v14.4"/>
<path class="st0" d="M1690,485.5v-14.4c0-2.8,2.3-5.1,5.1-5.1c2.8,0,5.1,2.3,5.1,5.1v14.4"/>
<path class="st0" d="M1715.2,485.5v-14.4c0-2.8,2.3-5.1,5.1-5.1c2.8,0,5.1,2.3,5.1,5.1v14.4"/>
<path class="st0" d="M1740.3,485.5v-14.4c0.1-2.8,2.5-5,5.3-4.9c2.6,0.1,4.8,2.2,4.9,4.9v14.4"/>
<path class="st0" d="M1765.4,485.5v-14.4c0-2.8,2.3-5.1,5.1-5.1c2.8,0,5.1,2.3,5.1,5.1v14.4"/>
<path class="st0" d="M1639.8,457.4v-14.4c0-2.8,2.3-5.1,5.1-5.1c2.8,0,5.1,2.3,5.1,5.1c0,0,0,0,0,0v14.4"/>
<path class="st0" d="M1664.9,457.4v-14.4c-0.1-2.8,2.1-5.2,4.9-5.3s5.2,2.1,5.3,4.9c0,0.2,0,0.3,0,0.5v14.4"/>
<path class="st0" d="M1639.8,429.2v-14.4c0-2.8,2.3-5.1,5.1-5.1c2.8,0,5.1,2.3,5.1,5.1c0,0,0,0,0,0v14.4"/>
<path class="st0" d="M1639.8,401.1v-14.4c0-2.8,2.3-5.1,5.1-5.1c2.8,0,5.1,2.3,5.1,5.1c0,0,0,0,0,0v14.4"/>
<path class="st0" d="M1664.9,429.2v-14.4c-0.1-2.8,2.1-5.2,4.9-5.3s5.2,2.1,5.3,4.9c0,0.2,0,0.3,0,0.5v14.4"/>
<path class="st0" d="M1690,457.4v-14.4c0-2.8,2.3-5.1,5.1-5.1c2.8,0,5.1,2.3,5.1,5.1c0,0,0,0,0,0v14.4"/>
<path class="st0" d="M1715.2,457.4v-14.4c0-2.8,2.3-5.1,5.1-5.1c2.8,0,5.1,2.3,5.1,5.1v14.4"/>
<path class="st0" d="M1740.3,457.4v-14.4c-0.1-2.8,2.1-5.2,4.9-5.3s5.2,2.1,5.3,4.9c0,0.2,0,0.3,0,0.5v14.4"/>
<path class="st0" d="M1765.4,457.4v-14.4c0-2.8,2.3-5.1,5.1-5.1c2.8,0,5.1,2.3,5.1,5.1v14.4"/>
<path class="st0" d="M164,385.7l-5.6-3c-1.8-0.8-3.4-1.9-4.9-3.3c-2.3-2.2-3.5-5.2-3.4-8.3c0.6,2.9-0.8,5.9-2.9,8s-4.6,3.6-7,5.4
	s-4.5,4.1-5.1,7s0.9,6.4,3.8,7h12.6"/>
<path class="st0" d="M174.5,407.3c3-1.7,4.5-5.1,3.7-8.5c-0.6-2.5-2.8-4.5-4.8-6.2c-4.8-4-8.3-10.3-7.8-12.9
	c-0.1,3.8-1.7,7.4-4.4,10c-2.8,2.6-6.8,4.1-8.4,7.6s0.1,8.5,3.6,9.9L174.5,407.3z"/>
<path class="st0" d="M157,407.8v10.9"/>
<path class="st0" d="M174.5,407.8v10.9"/>
<path class="st0" d="M152.2,429.1c0-1.5,0-2.9,0.2-4.4c0-1.4,0.5-2.7,1.4-3.7c1-1.1,2.4-1.6,3.9-1.3c1.7,0.4,2.5,2,2.9,3.7
	s0.2,2.7,0,5.7"/>
<path class="st0" d="M160.7,429.1c0-1.5,0-2.9,0.2-4.4c0-1.4,0.5-2.7,1.4-3.7c1-1.1,2.4-1.6,3.9-1.3c1.7,0.4,2.5,2,2.9,3.7
	s0.2,2.7,0,5.7"/>
<path class="st0" d="M177.4,429.1c0-1.8,0.1-3,0-4.6c0.1-1.3-0.3-2.7-1.2-3.7c-0.9-1-2.3-1.5-3.7-1.1c-1.7,0.4-2.8,2.2-3.2,3.9
	s-0.2,2.4-0.3,5.6"/>
<line class="st0" x1="152.2" y1="429.1" x2="177.2" y2="429.1"/>
<path class="st0" d="M138.7,398.6c1,2,2,3.9,3,5.8l0,0h10.8"/>
<path class="st0" d="M141.4,404.5l0.1,0.2v8.4"/>
<path class="st0" d="M156.8,413.6h-21.2v-0.1c0,0.1,0,0.5,0,0.6v5.1l20.1,0.1"/>
<path class="st0" d="M135.6,419.3c0.5,1.7,1,3.4,1.5,5.1c0,0,0-0.1,0-0.1h14.7"/>
<path class="st0" d="M137.1,424.6v10.5"/>
<path class="st0" d="M143.2,449l-9.5-21.4l-11,23.7h18.5l8.8-8h26.6"/>
<polyline class="st0" points="122.7,470.4 141.2,470.4 150,462.4 176.5,462.4 "/>
<line class="st0" x1="142.1" y1="486.6" x2="142.1" y2="470.2"/>
<path class="st0" d="M127,486.5c0-3.8-0.6-6.4,1.1-9.3c1.4-2.4,4.5-3.3,6.9-1.9c1,0.5,1.7,1.4,2.2,2.4c1.2,2.9,0.8,5.4,0.7,8.9"/>
<path class="st0" d="M122.7,451.4v35.1"/>
<path class="st0" d="M127,466.3c0-3.8-0.6-6.4,1.1-9.3c1.4-2.4,4.5-3.3,6.9-1.9c1,0.5,1.7,1.4,2.2,2.4c1.2,2.9,0.8,5.4,0.7,8.9
	L127,466.3z"/>
<path class="st0" d="M160.1,458.3c0-3.8-0.6-6.4,1.1-9.3c1.4-2.4,4.5-3.3,6.9-1.9c1,0.5,1.7,1.4,2.2,2.4c1.2,2.9,0.8,5.4,0.7,8.9
	L160.1,458.3z"/>
<polyline class="st0" points="176.5,486.6 176.5,430.8 198.5,430.8 "/>
<path class="st0" d="M160.1,486.6c0-0.8,0-9.8-0.1-10.4c0-2.9-0.2-4.9,1.1-7.2c1.4-2.4,4.5-3.3,6.9-1.9c1,0.5,1.7,1.4,2.2,2.4
	c1,2.3,0.8,3.5,0.8,6.8c0,0.7-0.1,9.5-0.1,10.2"/>
<path class="st0" d="M153.7,429.3c0,0.4,0.1,0.7,0.1,1.1v12.7"/>
<polyline class="st0" points="180,430.7 185.8,410.1 192.3,430.7 "/>
<path class="st0" d="M191,393.1c1-1,1.2-2.6,0.4-3.7c-0.8-0.9-1.8-1.6-3-2.1c-1.1-0.5-2.5-1.1-2.7-2.3c-0.3,1.2-1.6,1.8-2.7,2.3
	c-1.2,0.4-2.2,1.1-3,2.1c-0.8,1.2-0.6,2.7,0.4,3.7"/>
<path class="st0" d="M198.2,385c-0.3,1.2-1.7,1.8-2.8,2.3c-1.2,0.4-2.2,1.1-3,2.1c-0.8,1.2-0.6,2.7,0.4,3.7"/>
<path class="st0" d="M188,386.9v-9.1c0-0.4,0-0.8,0-1.2h0.4h9.9"/>
<polyline class="st0" points="198.2,372.6 186.3,372.6 188,376.7 "/>
<path class="st0" d="M186.4,372.7c-3.1-3.9-3.4-9.3-0.7-13.5c1.9-2.8,4.9-4.6,7.6-6.6s4.7-4.8,5-8.2"/>
<path class="st0" d="M181,388.4v-35.8c0.1,0,0.2-0.2,0.2-0.2h11.6"/>
<path class="st0" d="M196.5,348.3h-17.1c-0.9,1-2,2.3-3.5,4.2l5.1-0.1"/>
<path class="st0" d="M183.2,348.1c2.8-8.4,5.6-16.7,8.5-25.1l0.6,0.1h6.6"/>
<path class="st0" d="M191.8,322.9v-6.7"/>
<path class="st0" d="M191.7,316.1h6.8"/>
<path class="st0" d="M191.9,315.8c-0.9-1.1-1.7-2.2-2.3-3.5c-0.6-1.3-0.5-2.8,0.1-4.1c0.7-1.1,1.7-1.9,2.9-2.3
	c1.2-0.4,2.4-0.9,3.5-1.5c1.1-0.6,1.9-1.7,2.1-2.9"/>
<path class="st0" d="M232.7,385.7l5.6-3c1.8-0.8,3.4-1.9,4.9-3.3c2.3-2.2,3.5-5.2,3.4-8.3c-0.7,2.9,0.8,5.9,2.9,8s4.7,3.6,7,5.4
	c2.3,1.8,4.5,4.1,5.1,7s-0.9,6.4-3.8,7h-12.6"/>
<path class="st0" d="M222.1,407.3c-3-1.7-4.5-5.1-3.7-8.5c0.6-2.5,2.8-4.5,4.8-6.2c4.9-4,8.3-10.3,7.9-12.9c0.1,3.8,1.7,7.4,4.5,10
	c2.8,2.6,6.8,4.1,8.5,7.6s-0.1,8.5-3.7,9.9L222.1,407.3z"/>
<path class="st0" d="M239.8,407.8v10.9"/>
<path class="st0" d="M222.2,407.8v10.9"/>
<path class="st0" d="M244.6,429.1c0-1.5,0-2.9-0.2-4.4c0-1.4-0.5-2.7-1.4-3.8c-1-1.1-2.5-1.6-3.9-1.3c-1.7,0.4-2.5,2-2.9,3.7
	s-0.2,2.7,0,5.7"/>
<path class="st0" d="M236,429.1c0-1.5,0-2.9-0.2-4.4c0-1.4-0.5-2.7-1.4-3.7c-1-1.1-2.5-1.6-3.9-1.3c-1.7,0.4-2.5,2-2.9,3.7
	s-0.2,2.7,0,5.7"/>
<path class="st0" d="M219.2,429.1c0-1.8-0.1-3,0-4.6c-0.1-1.3,0.3-2.7,1.2-3.7c0.9-1,2.4-1.5,3.7-1.1c1.7,0.4,2.9,2.2,3.2,3.9
	s0.2,2.4,0.3,5.6"/>
<line class="st0" x1="244.6" y1="429.1" x2="219.4" y2="429.1"/>
<path class="st0" d="M258.3,398.6c-1,2-2,3.9-3,5.8l0,0h-10.9"/>
<path class="st0" d="M255.5,404.5l-0.1,0.2v8.4"/>
<path class="st0" d="M240,413.6h21.3v-0.1c0,0.1,0,0.5,0,0.6v5.1l-20.3,0.1"/>
<path class="st0" d="M261.3,419.3c-0.5,1.7-1,3.4-1.5,5.1c0,0,0-0.1,0-0.1H245"/>
<path class="st0" d="M259.8,424.6v10.5"/>
<path class="st0" d="M253.6,449l9.6-21.4l11.1,23.7h-18.7l-8.9-8h-26.8"/>
<polyline class="st0" points="274.4,470.4 255.7,470.4 246.8,462.4 220.1,462.4 "/>
<line class="st0" x1="254.8" y1="486.6" x2="254.8" y2="470.2"/>
<path class="st0" d="M270.1,486.5c0-3.8,0.6-6.4-1.1-9.3c-1.4-2.5-4.6-3.3-7-1.9c-1,0.6-1.7,1.4-2.1,2.4c-1.2,2.9-0.8,5.4-0.7,8.9"
	/>
<path class="st0" d="M274.3,451.4v35.1"/>
<path class="st0" d="M270.1,466.3c0-3.8,0.6-6.4-1.1-9.3c-1.4-2.5-4.6-3.3-7-1.9c-1,0.6-1.7,1.4-2.1,2.4c-1.2,2.9-0.8,5.4-0.7,8.9
	L270.1,466.3z"/>
<path class="st0" d="M236.7,458.3c0-3.8,0.6-6.4-1.1-9.3c-1.4-2.4-4.6-3.3-7-1.9c-0.9,0.5-1.7,1.4-2.1,2.4c-1.2,2.9-0.8,5.4-0.7,8.9
	L236.7,458.3z"/>
<polyline class="st0" points="220.1,486.6 220.1,430.8 197.9,430.8 "/>
<path class="st0" d="M236.7,486.6c0-0.8,0-9.8,0.1-10.4c0-2.9,0.2-4.9-1.1-7.2c-1.4-2.4-4.6-3.3-7-1.9c-0.9,0.5-1.7,1.4-2.1,2.4
	c-1,2.3-0.8,3.5-0.8,6.8c0,0.7,0.1,9.5,0.1,10.2"/>
<path class="st0" d="M243.1,429.3c0,0.4-0.1,0.7-0.1,1.1v12.7"/>
<polyline class="st0" points="216.6,430.7 210.7,410.1 204.1,430.7 "/>
<polyline class="st0" points="204.1,430.7 198.2,410.1 192.4,430.7 "/>
<polyline class="st0" points="216.6,430.7 216.6,393.5 198.2,393.5 180,393.5 180,430.7 "/>
<path class="st0" d="M205.4,393.1c-1-1-1.2-2.6-0.4-3.7c0.8-0.9,1.8-1.6,3-2.1c1.1-0.5,2.5-1.1,2.8-2.3c0.3,1.2,1.6,1.8,2.8,2.3
	c1.2,0.4,2.2,1.1,3,2.1c0.8,1.2,0.6,2.7-0.4,3.7"/>
<path class="st0" d="M198.2,385c0.3,1.2,1.7,1.8,2.8,2.3c1.2,0.4,2.2,1.1,3,2.1c0.8,1.2,0.6,2.7-0.4,3.7"/>
<path class="st0" d="M208.6,386.9v-9.1c0-0.5,0-0.7,0-1.2h-0.4h-9.9"/>
<polyline class="st0" points="198.2,372.6 210.2,372.6 208.6,376.7 "/>
<path class="st0" d="M210.1,372.7c3.2-3.9,3.5-9.3,0.8-13.5c-1.9-2.8-5-4.6-7.7-6.6s-4.8-4.8-5-8.2"/>
<path class="st0" d="M215.6,388.4v-35.8c-0.1,0-0.2-0.2-0.2-0.2h-11.7"/>
<path class="st0" d="M200,348.3h17.2c0.9,1,2.1,2.3,3.6,4.2l-5.1-0.1"/>
<path class="st0" d="M213.3,348.1l-8.5-25.1l-0.6,0.1h-6.6"/>
<path class="st0" d="M204.7,322.9v-6.7"/>
<path class="st0" d="M204.8,316.1h-6.9"/>
<path class="st0" d="M204.6,315.8c0.9-1.1,1.7-2.2,2.3-3.5c0.6-1.3,0.6-2.8-0.1-4.1c-0.7-1.1-1.7-1.9-2.9-2.3
	c-1.2-0.4-2.4-0.9-3.5-1.5c-1.1-0.6-1.9-1.7-2.1-2.9"/>
<line class="st0" x1="185.5" y1="425.1" x2="185.5" y2="430.6"/>
<path class="st0" d="M197.5,424.6l0.2,5.4"/>
<path class="st0" d="M210.1,424.5c0,1.8,0.1,3.7,0.1,5.5"/>
<path class="st0" d="M176.8,457.6H219"/>
<line class="st0" x1="176.6" y1="446.1" x2="219.4" y2="446.1"/>
<path class="st0" d="M188.9,486.4c0.1-4.7-0.1-7.2,0.3-11.5c0.3-3.7,1.8-6.9,5.3-8.1s6.9-0.1,8.3,2.5c0.8,1.5,1.3,3.2,1.4,4.9
	c0,4.1,0,7.4,0,12.1"/>
<rect x="56.6" y="269.4" class="st0" width="58.4" height="47.9"/>
<circle class="st0" cx="85.8" cy="293.4" r="15.1"/>
<polyline class="st0" points="78.2,286 85.8,293.4 92.6,289.7 "/>
<rect x="56.6" y="269.4" class="st0" width="6.7" height="47.9"/>
<rect x="108.3" y="269.4" class="st0" width="6.7" height="47.9"/>
<polygon class="st0" points="102.7,254 68.9,254 63.2,269.4 108.3,269.4 "/>
<rect x="68.9" y="239" class="st0" width="33.5" height="14.9"/>
<path class="st0" d="M69,239c4.8,0,16.7-30,16.7-30s11.2,30,16.7,30H69z"/>
<line class="st0" x1="76.4" y1="254" x2="76.4" y2="248.2"/>
<line class="st0" x1="82.6" y1="254" x2="82.6" y2="248.2"/>
<line class="st0" x1="88.9" y1="254" x2="88.9" y2="248.2"/>
<line class="st0" x1="95.2" y1="254" x2="95.2" y2="248.2"/>
<rect x="63.2" y="317.3" class="st0" width="45.1" height="138.1"/>
<rect x="63.2" y="317.3" class="st0" width="7.4" height="138.1"/>
<rect x="100.9" y="317.3" class="st0" width="7.4" height="138.1"/>
<line class="st0" x1="70.7" y1="345.6" x2="100.9" y2="345.6"/>
<line class="st0" x1="77.3" y1="345.6" x2="77.3" y2="331"/>
<line class="st0" x1="85.8" y1="345.6" x2="85.8" y2="331"/>
<line class="st0" x1="94.2" y1="345.6" x2="94.2" y2="331"/>
<line class="st0" x1="70.7" y1="379.2" x2="100.9" y2="379.2"/>
<line class="st0" x1="77.3" y1="379.2" x2="77.3" y2="364.6"/>
<line class="st0" x1="85.8" y1="379.2" x2="85.8" y2="364.6"/>
<line class="st0" x1="94.2" y1="379.2" x2="94.2" y2="364.6"/>
<line class="st0" x1="70.7" y1="412.9" x2="100.9" y2="412.9"/>
<line class="st0" x1="77.3" y1="412.9" x2="77.3" y2="398.3"/>
<line class="st0" x1="85.8" y1="412.9" x2="85.8" y2="398.3"/>
<line class="st0" x1="94.2" y1="412.9" x2="94.2" y2="398.3"/>
<line class="st0" x1="77.3" y1="455.4" x2="77.3" y2="431.6"/>
<line class="st0" x1="85.8" y1="455.4" x2="85.8" y2="431.6"/>
<line class="st0" x1="94.2" y1="455.4" x2="94.2" y2="431.6"/>
<polyline class="st0" points="57.1,485.6 57.1,455.4 114.4,455.4 114.4,485.6 "/>
<path class="st0" d="M-1.3,416.3c1.8-1,3.8-1.6,5.8-1.6c1.4,0,2.8,0.3,4.1,0.8c0-0.2,0-0.5,0-0.8c-0.2-4.2,3.1-7.7,7.3-7.9
	s7.7,3.1,7.9,7.3c0,0.2,0,0.4,0,0.6c0,0.3,0,0.5,0,0.8c6-2.3,12.7,0.7,15,6.7c0.9,2.3,1,4.9,0.3,7.3c7.1,4.3,9.5,13.5,5.2,20.7
	c-4.3,7.1-13.5,9.5-20.7,5.2c-0.9-0.5-1.7-1.2-2.5-1.9c-3.1,1.5-6.7,1.5-9.8,0c-2.8,2.6-6.4,4-10.2,4c-0.8,0-1.6-0.1-2.3-0.2"/>
<line class="st0" x1="16.2" y1="454.6" x2="16.2" y2="486"/>
<path class="st0" d="M7.7,456c0,0-0.7,11.6,8.5,11.6"/>
<path class="st0" d="M24.4,456c0,0,0.2,5.8-8.2,5.8"/>
<path class="st0" d="M124.4,205.9c0-8,5.4-12.8,12-12.8c1.4-0.1,2.8,0,4.1,0.4c2.1-4.3,6.5-7.1,11.3-7.2c0.5,0,0.9,0,1.4,0
	c3.7-8.8,13.8-13,22.7-9.4c3.7,1.5,6.7,4.3,8.6,7.7c2-1.3,4.3-2.1,6.7-2.1c1.5,0,2.9,0.3,4.3,0.8c6.3-8.9,18.7-11,27.6-4.7
	c3,2.1,5.4,5.1,6.8,8.5c1.6-0.7,3.3-1.1,5.1-1.1c4.7,0,9,2.7,11.2,6.9c1.2-0.4,2.4,0.1,3.7,0.1c6.6,0,11.9,4.8,11.9,12.8"/>
<path class="st0" d="M45.8,188.8c0-4.8,2.8-6.9,6.2-6.9c0.6,0,1.2-0.3,1.7-0.1c1.1-2.3,3-4,5.4-4.9c0.9-7,6.8-12.2,13.8-12.3
	c5.7,0,10.9,3.5,13,8.8c4.2-3.6,10.5-3.1,14.1,1.1c1.3,1.5,2.1,3.4,2.3,5.4c1.6-1.3,3.5-2,5.5-2c1.5,0,2.9,0.4,4.2,1.1
	c0.3-6.7,5.9-11.9,12.6-11.6c6.5,0.3,11.6,5.6,11.6,12.1c0,0.1,0,0.9,0,1c3.4,0.9,5.9,3.6,5.9,8.4"/>
<path class="st0" d="M1659.6,315.9c0-13,9.1-21.1,20.3-21.1c6.7-0.1,13,3.2,16.8,8.7c1.9-1.3,4.1-2,6.3-2c0.4,0,0.9,0,1.3,0
	c3.8-10.4,15.2-15.7,25.6-12c4.6,1.7,8.4,4.9,10.7,9.2c1.3-0.5,2.7-0.8,4.2-0.8c3.4,0,6.7,1.5,8.9,4.1c2.2-6.3,8.2-10.6,14.9-10.6
	c2.4,0,4.7,0.5,6.9,1.6c5.6-5.8,13.5-8.9,22.2-8.9c17.1,0,30.9,14,30.9,31.8"/>
<path class="st0" d="M1815.9,320.4c8-3.2,16.5-4.7,25.1-4.5c31.6,0.5,37.9,17.4,37.9,17.4"/>
</svg>
