<?xml version="1.0" encoding="utf-8"?>
<!-- Generator: Adobe Illustrator 24.3.0, SVG Export Plug-In . SVG Version: 6.00 Build 0)  -->
<svg version="1.1" id="Layer_1" xmlns="http://www.w3.org/2000/svg" xmlns:xlink="http://www.w3.org/1999/xlink" x="0px" y="0px"
	 viewBox="0 0 35.7 35.4" style="enable-background:new 0 0 35.7 35.4;" xml:space="preserve">
<style type="text/css">
	.st0{fill:#808285;}
	.st1{fill:#939598;}
</style>
<g>
	<path class="st0" d="M21.3,17.4c-1-2.4-2.1-4.8-3.1-7.2c-0.5-1.2-1-2.4-1.6-3.5c-0.8-1.4-2.1-1.7-3.4-1c-0.6,0.3-0.7,0.6-0.6,1.3
		c0.2,1.2,0.5,2.4,0.7,3.6c0.3,1.4,0.5,2.9,0.8,4.3l7.5,2.7C21.4,17.6,21.3,17.5,21.3,17.4z"/>
	<path class="st1" d="M34.9,25.6c0-0.9-0.3-1.7-0.9-2.3c-0.1-0.1-0.1-0.2-0.2-0.3c-0.1-0.1-0.2-0.2-0.3-0.3c-0.1,0-0.1,0-0.2-0.1
		c-0.6-0.6-1.4-1-2.2-1.2c-3.1-1.1-6.2-2.3-9.4-3.4c-0.1,0-0.2-0.1-0.3-0.2L14,15v0c-0.1,0-0.1,0-0.2,0c-1.3-0.5-2.5-0.9-3.8-1.4
		c-0.2,0-0.3-0.2-0.4-0.3c-1.1-1.8-2.2-3.6-3.3-5.5C6.2,7.4,6,7.3,5.5,7.4c-1,0.3-2,0.5-2.9,0.8C1.9,8.4,1.8,8.7,2,9.3
		c0.6,1.3,1.1,2.7,1.7,4c0.1,0.2,0.2,0.5,0.3,0.7c-0.3-0.1-0.6-0.2-0.9-0.3c-0.6-0.2-0.8-0.1-1,0.5c-0.3,0.9-0.7,1.8-1,2.8
		c-0.2,0.6-0.1,0.9,0.5,1.2c3.6,1.3,7.1,2.6,10.7,3.9c0.3,0.1,0.5,0.1,0.7-0.1c0.8-0.6,1.5-1.3,2.3-1.9c0.2-0.2,0.4-0.2,0.6,0
		c0.2,0.2,0.2,0.5,0,0.7c0,0-0.1,0.1-0.2,0.1c-1,0.8-1.9,1.6-2.9,2.4c-2.3,1.9-4.6,3.8-6.9,5.7c-0.4,0.3-0.5,0.6,0,1
		c0.2,0.2,0.5,0.3,0.7,0.3c0.6,0.1,1.2-0.2,1.7-0.5c3.8-1.9,7.5-3.7,11.3-5.6c1-0.5,2-1,3-1.5c0.2-0.1,0.3-0.2,0.5-0.1
		c0.2,0,0.3,0.2,0.3,0.4c0,0.2-0.1,0.4-0.3,0.5c-0.7,0.4-1.4,0.7-2.1,1c-0.2,0.1-0.5,0.2-0.7,0.4c0.1,0,0.2,0.1,0.2,0.1
		c2.8,1,5.7,2.1,8.6,3.1c0.6,0.2,1.3,0.3,2,0.4c1,0.1,1.9-0.2,2.7-0.7c0.2-0.2,0.5-0.5,0.7-0.7C34.7,26.6,34.9,26.1,34.9,25.6z"/>
</g>
</svg>
