<?xml version="1.0" encoding="utf-8"?>
<!-- Generator: Adobe Illustrator 24.3.0, SVG Export Plug-In . SVG Version: 6.00 Build 0)  -->
<svg version="1.1" id="Layer_1" xmlns="http://www.w3.org/2000/svg" xmlns:xlink="http://www.w3.org/1999/xlink" x="0px" y="0px"
	 viewBox="0 0 37.2 36.8" style="enable-background:new 0 0 37.2 36.8;" xml:space="preserve">
<style type="text/css">
	.st0{fill:#FFFFFF;}
	.st1{fill:#808285;}
	.st2{fill:#939598;}
</style>
<g id="V792a2.tif">
	<g>
		<path class="st0" d="M17.8,4.7c0.6,0,1.2,0,1.8,0c0.3,0,0.6,0.1,1,0.1c2.2,0.3,4.2,1.1,6,2.4c3,2.2,4.8,5.2,5.4,8.9
			c0.1,0.4,0.1,0.8,0.2,1.1c0,0.6,0,1.2,0,1.8c0,0.3-0.1,0.7-0.1,1c-0.3,2.2-1.1,4.2-2.5,6c-3.2,4.2-7.5,6-12.7,5.4
			c-3.2-0.4-5.8-1.8-8-4.2c-2.7-3-3.9-6.5-3.5-10.5c0.2-1.9,0.8-3.8,1.8-5.4c2.2-3.6,5.4-5.7,9.5-6.4C17.1,4.8,17.5,4.8,17.8,4.7z
			 M18.9,28c0.2,0,0.7,0,1.1-0.1c1.9-0.2,3.6-1,5.1-2.3c0.5-0.4,0.7-0.9,0.7-1.5c0-2-1.4-3.7-3.3-4.2c-0.4-0.1-0.8-0.2-1.1-0.2
			c-1.9,0-3.7,0-5.6,0c-2.3,0.1-4.1,2-4.2,4.3c0,0.6,0.2,1.2,0.7,1.6C14.2,27.2,16.3,28,18.9,28z M23.2,13.2c0-2.5-2-4.4-4.5-4.4
			c-2.5,0-4.4,2-4.4,4.4c0,2.5,2,4.5,4.4,4.4C21.2,17.6,23.2,15.6,23.2,13.2z"/>
	</g>
</g>
<g>
	<path class="st1" d="M20.5,13.2c-2.4-1-4.9-1.9-7.3-2.9c-1.2-0.5-2.4-1-3.6-1.3C8,8.6,6.9,9.3,6.5,10.8c-0.2,0.7-0.1,0.9,0.5,1.3
		c1,0.7,2,1.4,3,2.1c1.2,0.8,2.4,1.7,3.6,2.5l7.2-3.4C20.7,13.3,20.6,13.3,20.5,13.2z"/>
	<path class="st2" d="M35.9,9.3c-0.6-0.6-1.4-1-2.3-1c-0.1,0-0.2,0-0.4-0.1c-0.1,0-0.3,0-0.4,0c-0.1,0-0.1,0.1-0.2,0.1
		c-0.9,0-1.7,0.3-2.5,0.7c-3,1.4-6,2.8-9,4.2c-0.1,0-0.2,0.1-0.3,0.1l-7.2,3.4c0,0,0,0,0,0c-0.1,0-0.1,0.1-0.1,0.1
		c-1.2,0.6-2.4,1.2-3.6,1.7c-0.1,0.1-0.3,0.1-0.5,0c-2.1-0.5-4.1-1-6.2-1.5c-0.5-0.1-0.7,0-1,0.4c-0.5,0.9-1,1.8-1.5,2.7
		c-0.3,0.5-0.2,0.9,0.4,1.1c1.3,0.6,2.7,1.1,4,1.7c0.2,0.1,0.5,0.2,0.7,0.3c-0.3,0.2-0.6,0.3-0.8,0.4c-0.5,0.3-0.6,0.5-0.4,1.1
		c0.4,0.9,0.8,1.8,1.2,2.7C6.1,27.9,6.4,28,7,27.7c3.4-1.6,6.9-3.2,10.3-4.8c0.3-0.1,0.4-0.3,0.4-0.6c0.1-1,0.2-2,0.3-2.9
		c0-0.3,0.2-0.4,0.5-0.4s0.4,0.2,0.5,0.5c0,0.1,0,0.1,0,0.2c-0.1,1.2-0.2,2.5-0.3,3.8c-0.3,3-0.6,6-0.8,8.9c0,0.5,0.1,0.7,0.6,0.7
		c0.2,0,0.5-0.1,0.7-0.3c0.5-0.4,0.7-1,0.9-1.5c1.3-4,2.7-8,4-11.9c0.3-1,0.7-2.1,1.1-3.1c0-0.2,0.1-0.4,0.3-0.4
		c0.1-0.1,0.4-0.1,0.5,0c0.1,0.1,0.2,0.4,0.1,0.5c-0.2,0.8-0.5,1.5-0.7,2.2c-0.1,0.2-0.2,0.5-0.2,0.8c0.1,0,0.2-0.1,0.2-0.1
		c2.8-1.3,5.5-2.6,8.2-3.9c0.6-0.3,1.2-0.7,1.7-1.2c0.8-0.6,1.2-1.5,1.5-2.4c0-0.3,0-0.7,0-1C36.5,10.2,36.3,9.7,35.9,9.3z"/>
</g>
</svg>
