<?xml version="1.0" encoding="utf-8"?>
<!-- Generator: Adobe Illustrator 24.3.0, SVG Export Plug-In . SVG Version: 6.00 Build 0)  -->
<svg version="1.1" id="Layer_1" xmlns="http://www.w3.org/2000/svg" xmlns:xlink="http://www.w3.org/1999/xlink" x="0px" y="0px"
	 viewBox="0 0 39.6 39.2" style="enable-background:new 0 0 39.6 39.2;" xml:space="preserve">
<style type="text/css">
	.st0{fill:#FFFFFF;}
	.st1{fill:#C5E1F6;}
</style>
<g id="_x35_jcMn4.tif">
	<g>
		<path class="st0" d="M30.5,11.9c0,6.9,0,13.8,0,20.7c-0.2,0.6-0.4,1.2-0.8,1.7c-0.7,0.9-1.6,1.3-2.8,1.4c0,0.2,0,0.3,0,0.4
			c0,0.8-0.5,1.3-1.2,1.3c-0.7,0-1.2-0.5-1.2-1.3c0-0.1,0-0.3,0-0.4c-3.2,0-6.3,0-9.5,0c0,0.2,0,0.3,0,0.5c0,0.7-0.5,1.2-1.2,1.2
			c-0.7,0-1.2-0.5-1.2-1.2c0-0.2,0-0.4,0-0.5c-2.2-0.1-3.6-1.8-3.6-3.8c0-6.5,0-13,0-19.4c0-2,1.6-3.5,3.6-3.6c1,0,2.1,0.1,3.2,0
			c0.8-0.1,1.3,0.1,1.5,0.9c0.1,0.2,0.2,0.3,0.5,0.3c1.1,0,2.2-0.1,3.4,0c0.8,0,1.3-0.1,1.5-0.9c0.1-0.2,0.2-0.3,0.5-0.3
			c1.3,0,2.6,0,3.9,0c1.5,0,2.7,0.9,3.3,2.2C30.4,11.4,30.4,11.7,30.5,11.9z M12.7,22.8c0,0.5,0,1,0,1.5c0,2,0,3.9,0,5.9
			c0,0.9,0.8,1.5,1.6,1.2c0.5-0.2,0.8-0.6,0.8-1.3c0-4.8,0-9.7,0-14.5c0-0.1,0-0.2,0-0.3c-0.1-0.9-1-1.4-1.7-1
			c-0.5,0.2-0.7,0.7-0.7,1.2C12.7,18,12.7,20.4,12.7,22.8z M18.6,22.9c0,1.4,0,2.8,0,4.3c0,1,0,2.1,0,3.1c0,0.9,0.8,1.5,1.6,1.2
			c0.5-0.2,0.8-0.6,0.8-1.3c0-4.2,0-8.4,0-12.7c0-0.7,0-1.3,0-2c0-0.5-0.3-1-0.8-1.2c-0.8-0.3-1.6,0.3-1.6,1.2
			C18.6,18,18.6,20.4,18.6,22.9z M24.6,22.8c0,0.6,0,1.3,0,1.9c0,1.8,0,3.6,0,5.5c0,0.9,0.8,1.5,1.6,1.2c0.5-0.2,0.8-0.6,0.8-1.3
			c0-4.8,0-9.7,0-14.5c0-0.1,0-0.2,0-0.3c-0.1-0.8-0.9-1.3-1.7-1c-0.5,0.2-0.7,0.7-0.7,1.2C24.6,18,24.6,20.4,24.6,22.8z"/>
		<path class="st1" d="M24.3,1.8c0.7,0.3,0.9,0.8,0.9,1.5c0,1.3,0,2.7,0,4c0,0.1,0,0.3,0,0.4c-0.4,0-0.8,0-1.2,0c0-1,0-1.9,0-2.9
			c-2.8,0-5.5,0-8.3,0c0,1,0,1.9,0,2.9c-0.4,0-0.8,0-1.2,0c0-0.1,0-0.3,0-0.4c0-1.4,0-2.7,0-4.1c0-0.7,0.2-1.2,0.9-1.5
			C18.3,1.8,21.3,1.8,24.3,1.8z"/>
	</g>
</g>
</svg>
