<?xml version="1.0" encoding="utf-8"?>
<!-- Generator: Adobe Illustrator 24.3.0, SVG Export Plug-In . SVG Version: 6.00 Build 0)  -->
<svg version="1.0" id="Layer_1" xmlns="http://www.w3.org/2000/svg" xmlns:xlink="http://www.w3.org/1999/xlink" x="0px" y="0px"
	 viewBox="0 0 204.12 65.01" style="enable-background:new 0 0 204.12 65.01;" xml:space="preserve">
<style type="text/css">
	.st0{fill:#FFFFFF;}
	<!-- .st1{fill:#F15A29;} -->
	.st2{fill:#C5E1F6;}
	.st3{fill:#2E365E;stroke:#FFFFFF;stroke-miterlimit:10;}
	.st4{fill:#808285;}
	.st5{fill:#939598;}
	.st6{fill:#2E365E;}
	.st7{fill:#58595B;}
</style>
<g>
	<g id="BXwPji.tif_2_">
		<g>
			<path class="st0" d="M63.53,23.85c1.19,0,2.35-0.02,3.51,0.02c0.19,0.01,0.42,0.26,0.53,0.45c0.22,0.37,0.36,0.78,0.55,1.19
				c2.99-3.02,7.15-2.62,9.2,0.01c0.94-0.58,1.8-1.33,2.81-1.7c3.86-1.45,7.63,0.95,7.82,5.07c0.16,3.59,0.03,7.2,0.03,10.87
				c-1.78,0-3.57,0-5.44,0c0-0.78,0-1.55,0-2.31c0-2.21,0-4.43,0-6.64c0-0.21,0.01-0.41-0.01-0.62c-0.08-1.45-0.65-2.12-1.8-2.12
				c-1.3-0.01-2.14,0.77-2.2,2.16c-0.06,1.34-0.04,2.68-0.04,4.01c-0.01,1.82,0,3.65,0,5.53c-1.8,0-3.54,0-5.39,0
				c0-0.26,0-0.53,0-0.81c0-2.75,0-5.51-0.01-8.26c0-0.38-0.05-0.77-0.11-1.14c-0.12-0.77-0.48-1.36-1.33-1.48
				c-1.02-0.14-1.86,0.19-2.2,1.05c-0.27,0.67-0.4,1.44-0.41,2.16c-0.05,2.55-0.02,5.1-0.02,7.64c0,0.28,0,0.55,0,0.86
				c-1.87,0-3.65,0-5.47,0C63.53,34.52,63.53,29.25,63.53,23.85z"/>
			<path class="st0" d="M160.56,23.86c1.2,0,2.33-0.02,3.46,0.02c0.18,0.01,0.39,0.27,0.53,0.45c0.17,0.22,0.28,0.47,0.42,0.72
				c3.9-2.99,8.96-1.5,11.05,0.76c2.54,2.75,3.05,7.49,1.02,10.76c-1.15,1.86-2.8,3.06-4.93,3.58c-2.08,0.51-4.08,0.3-6.08-0.75
				c0,2.11,0,4.11,0,6.17c-1.86,0-3.65,0-5.48,0C160.56,38.34,160.56,31.17,160.56,23.86z M169.15,35.51c2.06,0,3.58-1.52,3.6-3.6
				c0.01-2.1-1.49-3.67-3.51-3.68c-2.12-0.01-3.64,1.51-3.63,3.64C165.6,33.96,167.1,35.5,169.15,35.51z"/>
			<path class="st0" d="M147.07,39.46c0,2.04,0,4.05,0,6.11c-1.82,0-3.57,0-5.37,0c0-7.23,0-14.43,0-21.72
				c1.13,0,2.23-0.02,3.34,0.02c0.2,0.01,0.43,0.23,0.57,0.41c0.17,0.21,0.28,0.49,0.46,0.82c1.98-1.67,4.28-1.99,6.7-1.59
				c1.75,0.29,3.26,1.11,4.45,2.45c2.57,2.87,2.89,7.61,0.76,10.84C155.71,40.22,152.08,41.12,147.07,39.46z M153.8,31.85
				c0-2.12-1.48-3.63-3.55-3.63c-2.05,0-3.6,1.55-3.61,3.61c-0.01,2.1,1.55,3.68,3.63,3.67C152.33,35.5,153.8,33.98,153.8,31.85z"/>
			<path class="st0" d="M196.48,33.17c-3.93,0-7.83,0-11.73,0c0.06,1.23,0.8,2.21,1.94,2.62c1.27,0.45,2.91,0.13,3.71-0.83
				c0.36-0.43,0.72-0.56,1.25-0.55c1.52,0.03,3.04,0.01,4.57,0.01c-0.83,3.62-4.73,6.66-10.04,5.82c-4.71-0.75-7.57-5.04-6.81-10.09
				c0.68-4.53,5.33-7.53,10.32-6.67C194.31,24.28,197.25,28.43,196.48,33.17z M191.14,30.05c-0.62-1.97-1.97-2.38-3.29-2.38
				c-1.59-0.01-2.66,0.9-3.01,2.38C186.93,30.05,189,30.05,191.14,30.05z"/>
			<path class="st0" d="M90.51,45.82c0-1.64,0-3.15,0-4.76c0.76,0,1.48,0.02,2.19,0c1.35-0.05,2.48-1.02,2.69-2.34
				c0.04-0.27-0.1-0.59-0.22-0.87c-1.98-4.43-3.98-8.85-5.97-13.28c-0.09-0.21-0.16-0.42-0.28-0.72c1.93,0,3.79-0.02,5.64,0.02
				c0.18,0,0.42,0.32,0.51,0.55c1.01,2.55,1.99,5.12,2.98,7.68c0.05,0.14,0.13,0.27,0.25,0.49c0.97-2.72,1.94-5.34,2.85-7.98
				c0.2-0.58,0.47-0.8,1.1-0.78c1.65,0.05,3.3,0.02,5.11,0.02c-0.44,1-0.82,1.9-1.22,2.8c-2.06,4.65-4.12,9.3-6.19,13.94
				c-0.26,0.58-0.62,1.13-0.94,1.68c-1.45,2.44-3.65,3.54-6.44,3.56C91.89,45.83,91.22,45.82,90.51,45.82z"/>
			<path class="st0" d="M116.75,19.28c0,1.49,0,2.97,0,4.54c1.34,0,2.63,0,3.97,0c0,1.46,0,2.83,0,4.3c-1.27,0-2.52,0-3.81,0
				c0,1.88-0.03,3.65,0.01,5.42c0.02,0.86,0.7,1.43,1.6,1.47c0.72,0.03,1.44,0.01,2.23,0.01c0,1.59,0,3.15,0,4.9
				c-1.89-0.11-3.82-0.02-5.66-0.37c-2.34-0.45-3.67-2.53-3.73-5.3c-0.04-1.72-0.01-3.45-0.01-5.17c0-0.28,0-0.56,0-0.92
				c-0.98,0-1.9,0-2.84,0c-0.19-0.75-0.15-1.31,0.39-1.88c2.1-2.17,4.17-4.36,6.21-6.58C115.59,19.18,116.07,19.09,116.75,19.28z"/>
			<path class="st0" d="M133.12,28.84c-0.83,0-1.58-0.01-2.33,0c-1.55,0.02-2.42,0.8-2.46,2.35c-0.06,2.55-0.03,5.09-0.04,7.64
				c0,0.3,0,0.61,0,0.95c-1.86,0-3.63,0-5.47,0c0-5.27,0-10.55,0-15.93c1.13,0,2.26-0.01,3.39,0.02c0.15,0,0.34,0.2,0.43,0.36
				c0.24,0.42,0.44,0.87,0.59,1.16c0.94-0.48,1.82-1.09,2.8-1.37c0.96-0.28,2.02-0.22,3.09-0.32
				C133.12,25.49,133.12,27.12,133.12,28.84z"/>
			<path class="st0" d="M140.09,23.9c0,5.32,0,10.56,0,15.86c-1.78,0-3.55,0-5.38,0c0-5.25,0-10.53,0-15.86
				C136.48,23.9,138.25,23.9,140.09,23.9z"/>
			<circle class="st0" cx="137.77" cy="20.19" r="2.63"/>
		</g>
	</g>
</g>
<g>
	<circle class="st1" cx="31.24" cy="32.94" r="26.34"/>
	<g>
		<path class="st0" d="M25.02,20.1c3.52,0.02,5.74,3.63,4.18,6.85c-0.93,1.92-1.91,3.81-2.85,5.73c-0.12,0.25-0.26,0.6-0.17,0.81
			c0.13,0.28,0.47,0.66,0.71,0.65c0.32-0.01,0.78-0.27,0.93-0.55c0.77-1.41,1.46-2.87,2.18-4.31c1.09-2.19,2.17-4.38,3.28-6.56
			c0.94-1.84,2.65-2.8,4.56-2.59c2.08,0.23,3.82,1.65,4.29,3.52c0.28,1.12,0.13,2.21-0.38,3.23c-3.13,6.29-6.26,12.58-9.43,18.85
			c-1.16,2.31-4.01,3.25-6.22,2.15c-2.31-1.15-3.32-4.04-2.2-6.38c0.58-1.21,1.18-2.4,1.8-3.59c0.21-0.41,0.22-0.73,0.01-1.15
			c-1.65-3.24-3.28-6.5-4.89-9.76c-1.44-2.92,0.16-6.19,3.34-6.83C24.43,20.12,24.72,20.12,25.02,20.1z"/>
		<path class="st0" d="M43.8,26.88c1.16,2.31,2.28,4.55,3.41,6.79c0.27,0.54,0.54,1.08,0.8,1.63c0.85,1.78,0.53,3.88-0.82,5.31
			c-1.31,1.39-3.41,1.84-5.2,1.11c-1.78-0.73-2.99-2.51-2.93-4.44c0.02-0.61,0.14-1.27,0.4-1.82c1.35-2.81,2.77-5.58,4.17-8.37
			C43.67,27.03,43.71,26.99,43.8,26.88z"/>
		<path class="st0" d="M18.75,26.85c1.25,2.49,2.46,4.91,3.68,7.34c0.21,0.41,0.42,0.82,0.61,1.24c0.81,1.87,0.39,3.93-1.09,5.37
			c-1.33,1.29-3.55,1.63-5.26,0.82c-1.74-0.83-2.84-2.71-2.66-4.67c0.05-0.55,0.21-1.12,0.45-1.62c1.35-2.76,2.73-5.51,4.11-8.25
			C18.61,27.02,18.65,26.97,18.75,26.85z"/>
	</g>
</g>
</svg>
