<?xml version="1.0" encoding="utf-8"?>
<!-- Generator: Adobe Illustrator 24.3.0, SVG Export Plug-In . SVG Version: 6.00 Build 0)  -->
<svg version="1.1" id="Layer_1" xmlns="http://www.w3.org/2000/svg" xmlns:xlink="http://www.w3.org/1999/xlink" x="0px" y="0px"
	 viewBox="0 0 37.9 37.5" style="enable-background:new 0 0 37.9 37.5;" xml:space="preserve">
<style type="text/css">
	.st0{fill:#C5E1F6;}
	.st1{fill:#FFFFFF;}
</style>
<g>
	<path class="st0" d="M21,15.4c-2.4-1-4.9-1.9-7.3-2.8c-1.2-0.5-2.4-1-3.6-1.3C8.6,10.8,7.4,11.5,7,13c-0.2,0.7-0.1,0.9,0.5,1.3
		c1,0.7,2,1.4,3,2.1c1.2,0.8,2.4,1.7,3.6,2.5l7.2-3.4C21.2,15.5,21.1,15.5,21,15.4z"/>
	<path class="st1" d="M36.4,11.5c-0.6-0.6-1.4-1-2.3-1c-0.1,0-0.2,0-0.4-0.1c-0.1,0-0.3,0-0.4,0c-0.1,0-0.1,0.1-0.2,0.1
		c-0.9,0-1.7,0.3-2.5,0.7c-3,1.4-6,2.8-9,4.2c-0.1,0-0.2,0.1-0.3,0.1l-7.2,3.4c0,0,0,0,0,0c-0.1,0-0.1,0.1-0.1,0.1
		c-1.2,0.6-2.4,1.2-3.6,1.7c-0.1,0.1-0.3,0.1-0.5,0c-2.1-0.5-4.1-1-6.2-1.5c-0.5-0.1-0.7,0-1,0.4c-0.5,0.9-1,1.8-1.5,2.7
		c-0.3,0.5-0.2,0.9,0.4,1.1c1.3,0.6,2.7,1.1,4,1.7c0.2,0.1,0.5,0.2,0.7,0.3c-0.3,0.2-0.6,0.3-0.8,0.4C5,26,4.9,26.2,5.2,26.8
		c0.4,0.9,0.8,1.8,1.2,2.7c0.3,0.6,0.6,0.7,1.2,0.4c3.4-1.6,6.9-3.2,10.3-4.8c0.3-0.1,0.4-0.3,0.4-0.6c0.1-1,0.2-2,0.3-2.9
		c0-0.3,0.2-0.4,0.5-0.4s0.4,0.2,0.5,0.5c0,0.1,0,0.1,0,0.2c-0.1,1.2-0.2,2.5-0.3,3.8c-0.3,3-0.6,6-0.8,8.9c0,0.5,0.1,0.7,0.6,0.7
		c0.2,0,0.5-0.1,0.7-0.3c0.5-0.4,0.7-1,0.9-1.5c1.3-4,2.7-8,4-11.9c0.3-1,0.7-2.1,1.1-3.1c0-0.2,0.1-0.4,0.3-0.4
		c0.1-0.1,0.4-0.1,0.5,0c0.1,0.1,0.2,0.4,0.1,0.5c-0.2,0.8-0.5,1.5-0.7,2.2c-0.1,0.2-0.2,0.5-0.2,0.8c0.1,0,0.2-0.1,0.2-0.1
		c2.8-1.3,5.5-2.6,8.2-3.9c0.6-0.3,1.2-0.7,1.7-1.2c0.8-0.6,1.2-1.5,1.5-2.4c0-0.3,0-0.7,0-1C37,12.4,36.8,11.9,36.4,11.5z"/>
</g>
</svg>
