<?xml version="1.0" encoding="utf-8"?>
<!-- Generator: Adobe Illustrator 24.3.0, SVG Export Plug-In . SVG Version: 6.00 Build 0)  -->
<svg version="1.1" id="Layer_1" xmlns="http://www.w3.org/2000/svg" xmlns:xlink="http://www.w3.org/1999/xlink" x="0px" y="0px"
	 viewBox="0 0 31 30.6" style="enable-background:new 0 0 31 30.6;" xml:space="preserve">
<style type="text/css">
	.st0{fill:#FFFFFF;}
	.st1{fill:#C5E1F6;}
</style>
<g id="OwBzdz.tif">
	<g>
		<path class="st0" d="M30.2,24.4C30.2,24.4,30.2,24.5,30.2,24.4c-0.5,1.5-1.3,2.1-2.9,2.1c-0.4,0-0.8,0-1.3,0c0,0.5,0,1,0,1.5
			c0,0.7-0.5,1.3-1.2,1.5C24,29.9,23,29.1,23,28.2c0-0.5,0-1,0-1.6c-3.1,0-6.2,0-9.3,0c0,0.5,0,1,0,1.6c0,0.6-0.3,1.1-0.9,1.4
			c-0.6,0.3-1.1,0.2-1.6-0.2c-0.4-0.3-0.6-0.7-0.6-1.2s0-1,0-1.6c-0.4,0-0.7,0-1.1,0c-1.1,0.1-1.9-0.3-2.6-1.1
			c-1.6-1.6-3.2-3.2-4.8-4.8c-1.4-1.4-0.8-3.7,1.1-4.3c1-0.3,1.9-0.1,2.6,0.7c1.1,1,2.1,2.1,3.1,3.1c0.1,0.1,0.2,0.1,0.2,0.2
			c2.9-2.9,5.8-5.8,8.7-8.7c0.5,0.5,1,1,1.5,1.5c-2.7,2.7-5.4,5.4-8.3,8.3c0.2,0,0.3,0,0.4,0c5.3,0,10.6,0,16,0c1.4,0,2.3,0.7,2.7,2
			c0,0,0,0,0,0.1C30.2,23.8,30.2,24.1,30.2,24.4z"/>
		<path class="st0" d="M18.9,0.8c0.5,0.1,1,0.2,1.5,0.3c1.4,0.3,2.7,0.8,3.9,1.5c0,0,0.1,0.1,0.1,0.1c0,0,0,0,0,0.1
			c-3.2,0.7-6.2,1.9-9,3.4c-1.2-1.2-2.5-2.5-3.7-3.7c0.1-0.1,0.2-0.1,0.4-0.2c1.4-0.8,3-1.2,4.6-1.4c0.1,0,0.1,0,0.2-0.1
			C17.6,0.8,18.2,0.8,18.9,0.8z"/>
		<path class="st0" d="M30.2,14.1c-0.1,0.6-0.2,1.2-0.3,1.9c-0.3,1.2-0.7,2.3-1.3,3.3c-1.2-1.2-2.5-2.5-3.7-3.7
			c1.5-2.8,2.7-5.8,3.4-9c0,0,0.1,0,0.1,0C28.6,7,28.8,7.4,29,7.8c0.6,1.3,1,2.7,1.2,4.1c0,0.1,0,0.2,0.1,0.3
			C30.2,12.8,30.2,13.5,30.2,14.1z"/>
		<path class="st1" d="M23.3,14.1c-2.1-2.1-4.2-4.2-6.4-6.4c3-1.6,6.2-2.7,9.6-3.3C26,7.9,24.9,11,23.3,14.1z"/>
		<path class="st0" d="M4.1,25.6C4.5,26,5,26.5,5.5,27c0,0,0,0,0,0c-0.8,0.8-1.6,1.6-2.4,2.4c-0.4,0.4-1,0.4-1.4,0
			c-0.4-0.4-0.5-1-0.1-1.4C2.4,27.2,3.2,26.4,4.1,25.6z"/>
	</g>
</g>
</svg>
