<?xml version="1.0" encoding="utf-8"?>
<!-- Generator: Adobe Illustrator 24.3.0, SVG Export Plug-In . SVG Version: 6.00 Build 0)  -->
<svg version="1.1" id="Layer_1" xmlns="http://www.w3.org/2000/svg" xmlns:xlink="http://www.w3.org/1999/xlink" x="0px" y="0px"
	 viewBox="0 0 31.9 31.5" style="enable-background:new 0 0 31.9 31.5;" xml:space="preserve">
<style type="text/css">
	.st0{fill:#2E365E;}
	.st1{fill:#C5E1F6;}
</style>
<g id="RT60gB.tif_1_">
	<g>
		<path class="st0" d="M8.2,16.5c0-3.7,0-7.3,0-11c0-1.6,1-2.6,2.6-2.6c3.4,0,6.8,0,10.2,0c1.6,0,2.6,1,2.6,2.6c0,7.4,0,14.8,0,22.1
			c0,0.7-0.2,0.9-0.9,0.9c-0.9,0-1.8,0-2.8,0c-0.6,0-0.8-0.2-0.8-0.8c0-2.2,0-4.3,0-6.5c0-0.7-0.2-0.9-0.9-0.9c-1.7,0-3.3,0-5,0
			c-0.6,0-0.8,0.2-0.8,0.8c0,2.2,0,4.3,0,6.5c0,0.6-0.2,0.8-0.8,0.8c-0.9,0-1.9,0-2.8,0c-0.6,0-0.8-0.2-0.8-0.8
			C8.2,24,8.2,20.2,8.2,16.5z M15.9,9c-1.1,0-2.2,0-3.4,0c-0.5,0-0.7,0.2-0.7,0.6c0,0.4,0.2,0.6,0.7,0.6c2.2,0,4.5,0,6.7,0
			c0.5,0,0.7-0.2,0.7-0.6C20,9.2,19.7,9,19.2,9C18.1,9,17,9,15.9,9z M15.9,16.1c0.8,0,1.5,0,2.3,0c0.5,0,0.7-0.2,0.7-0.6
			c0-0.4-0.3-0.6-0.7-0.6c-1.5,0-3.1,0-4.6,0c-0.5,0-0.7,0.2-0.7,0.6s0.3,0.6,0.7,0.6C14.4,16.1,15.1,16.1,15.9,16.1z"/>
		<path class="st0" d="M7,20c0,2.6,0,5.1,0,7.7c0,0.6-0.2,0.8-0.8,0.8c-1,0-2,0-3,0c-1.3,0-2.3-1-2.4-2.2c0-0.1,0-0.3,0-0.4
			c0-3.9,0-7.8,0-11.7c0-1.2,0.6-2.2,1.6-2.5c0.2-0.1,0.5-0.1,0.8-0.1c1,0,2,0,3,0c0.5,0,0.8,0.2,0.8,0.8C7,14.8,7,17.4,7,20L7,20z
			 M4.9,18.9c0-0.4,0-0.8,0-1.2c0-0.4-0.2-0.6-0.6-0.7s-0.6,0.2-0.6,0.6c0,0.9,0,1.7,0,2.6c0,0.4,0.3,0.6,0.6,0.6
			c0.3,0,0.6-0.3,0.6-0.6C4.9,19.7,4.9,19.3,4.9,18.9z"/>
		<path class="st0" d="M24.8,20c0-2.5,0-5.1,0-7.6c0-0.7,0.2-0.8,0.9-0.8c1,0,1.9,0,2.9,0c1.3,0,2.3,1,2.4,2.2c0,0.1,0,0.3,0,0.4
			c0,3.9,0,7.8,0,11.7c0,1.2-0.6,2.2-1.7,2.5c-0.2,0.1-0.5,0.1-0.8,0.1c-1,0-2,0-3,0c-0.6,0-0.8-0.2-0.8-0.8
			C24.8,25.1,24.8,22.6,24.8,20C24.8,20,24.8,20,24.8,20z M26.9,18.8c0,0.4,0,0.9,0,1.3c0,0.3,0.2,0.6,0.5,0.6
			c0.3,0,0.6-0.2,0.6-0.5c0-0.9,0-1.8,0-2.7c0-0.3-0.3-0.6-0.6-0.5s-0.5,0.3-0.5,0.6C26.9,18,26.9,18.4,26.9,18.8z"/>
		<path class="st1" d="M13.8,25c0-0.9,0-1.8,0-2.7c0-0.5,0.2-0.7,0.7-0.7c1,0,1.9,0,2.8,0c0.5,0,0.7,0.2,0.7,0.7c0,1.8,0,3.7,0,5.5
			c0,0.5-0.2,0.7-0.7,0.7c-1,0-1.9,0-2.9,0c-0.5,0-0.7-0.2-0.7-0.7C13.8,26.9,13.8,25.9,13.8,25z"/>
	</g>
</g>
</svg>
