<?xml version="1.0" encoding="utf-8"?>
<!-- Generator: Adobe Illustrator 24.3.0, SVG Export Plug-In . SVG Version: 6.00 Build 0)  -->
<svg version="1.1" id="Layer_1" xmlns="http://www.w3.org/2000/svg" xmlns:xlink="http://www.w3.org/1999/xlink" x="0px" y="0px"
	 viewBox="0 0 204.1 65" style="enable-background:new 0 0 204.1 65;" xml:space="preserve">
<style type="text/css">
	<!-- .st0{fill:#2E365E;} -->
	.st1{fill:#F15A29;}
	.st2{fill:#FFFFFF;}
</style>
<g>
	<g id="BXwPji.tif_2_">
		<g>
			<path class="st0" d="M63.5,23.9c1.2,0,2.3,0,3.5,0c0.2,0,0.4,0.3,0.5,0.5c0.2,0.4,0.4,0.8,0.6,1.2c3-3,7.2-2.6,9.2,0
				c0.9-0.6,1.8-1.3,2.8-1.7c3.9-1.5,7.6,1,7.8,5.1c0.2,3.6,0,7.2,0,10.9c-1.8,0-3.6,0-5.4,0c0-0.8,0-1.5,0-2.3c0-2.2,0-4.4,0-6.6
				c0-0.2,0-0.4,0-0.6c-0.1-1.5-0.7-2.1-1.8-2.1c-1.3,0-2.1,0.8-2.2,2.2c-0.1,1.3,0,2.7,0,4c0,1.8,0,3.7,0,5.5c-1.8,0-3.5,0-5.4,0
				c0-0.3,0-0.5,0-0.8c0-2.8,0-5.5,0-8.3c0-0.4-0.1-0.8-0.1-1.1c-0.1-0.8-0.5-1.4-1.3-1.5c-1-0.1-1.9,0.2-2.2,1
				c-0.3,0.7-0.4,1.4-0.4,2.2c-0.1,2.6,0,5.1,0,7.6c0,0.3,0,0.5,0,0.9c-1.9,0-3.7,0-5.5,0C63.5,34.5,63.5,29.2,63.5,23.9z"/>
			<path class="st0" d="M160.6,23.9c1.2,0,2.3,0,3.5,0c0.2,0,0.4,0.3,0.5,0.5c0.2,0.2,0.3,0.5,0.4,0.7c3.9-3,9-1.5,11.1,0.8
				c2.5,2.8,3.1,7.5,1,10.8c-1.1,1.9-2.8,3.1-4.9,3.6c-2.1,0.5-4.1,0.3-6.1-0.8c0,2.1,0,4.1,0,6.2c-1.9,0-3.6,0-5.5,0
				C160.6,38.3,160.6,31.2,160.6,23.9z M169.1,35.5c2.1,0,3.6-1.5,3.6-3.6c0-2.1-1.5-3.7-3.5-3.7c-2.1,0-3.6,1.5-3.6,3.6
				C165.6,34,167.1,35.5,169.1,35.5z"/>
			<path class="st0" d="M147.1,39.5c0,2,0,4,0,6.1c-1.8,0-3.6,0-5.4,0c0-7.2,0-14.4,0-21.7c1.1,0,2.2,0,3.3,0c0.2,0,0.4,0.2,0.6,0.4
				c0.2,0.2,0.3,0.5,0.5,0.8c2-1.7,4.3-2,6.7-1.6c1.8,0.3,3.3,1.1,4.4,2.5c2.6,2.9,2.9,7.6,0.8,10.8
				C155.7,40.2,152.1,41.1,147.1,39.5z M153.8,31.9c0-2.1-1.5-3.6-3.6-3.6c-2.1,0-3.6,1.5-3.6,3.6c0,2.1,1.6,3.7,3.6,3.7
				C152.3,35.5,153.8,34,153.8,31.9z"/>
			<path class="st0" d="M196.5,33.2c-3.9,0-7.8,0-11.7,0c0.1,1.2,0.8,2.2,1.9,2.6c1.3,0.5,2.9,0.1,3.7-0.8c0.4-0.4,0.7-0.6,1.2-0.5
				c1.5,0,3,0,4.6,0c-0.8,3.6-4.7,6.7-10,5.8c-4.7-0.8-7.6-5-6.8-10.1c0.7-4.5,5.3-7.5,10.3-6.7C194.3,24.3,197.2,28.4,196.5,33.2z
				 M191.1,30c-0.6-2-2-2.4-3.3-2.4c-1.6,0-2.7,0.9-3,2.4C186.9,30,189,30,191.1,30z"/>
			<path class="st0" d="M90.5,45.8c0-1.6,0-3.2,0-4.8c0.8,0,1.5,0,2.2,0c1.3,0,2.5-1,2.7-2.3c0-0.3-0.1-0.6-0.2-0.9
				c-2-4.4-4-8.9-6-13.3c-0.1-0.2-0.2-0.4-0.3-0.7c1.9,0,3.8,0,5.6,0c0.2,0,0.4,0.3,0.5,0.5c1,2.5,2,5.1,3,7.7
				c0.1,0.1,0.1,0.3,0.2,0.5c1-2.7,1.9-5.3,2.8-8c0.2-0.6,0.5-0.8,1.1-0.8c1.7,0,3.3,0,5.1,0c-0.4,1-0.8,1.9-1.2,2.8
				c-2.1,4.6-4.1,9.3-6.2,13.9c-0.3,0.6-0.6,1.1-0.9,1.7c-1.4,2.4-3.7,3.5-6.4,3.6C91.9,45.8,91.2,45.8,90.5,45.8z"/>
			<path class="st0" d="M116.8,19.3c0,1.5,0,3,0,4.5c1.3,0,2.6,0,4,0c0,1.5,0,2.8,0,4.3c-1.3,0-2.5,0-3.8,0c0,1.9,0,3.6,0,5.4
				c0,0.9,0.7,1.4,1.6,1.5c0.7,0,1.4,0,2.2,0c0,1.6,0,3.2,0,4.9c-1.9-0.1-3.8,0-5.7-0.4c-2.3-0.5-3.7-2.5-3.7-5.3c0-1.7,0-3.5,0-5.2
				c0-0.3,0-0.6,0-0.9c-1,0-1.9,0-2.8,0c-0.2-0.8-0.2-1.3,0.4-1.9c2.1-2.2,4.2-4.4,6.2-6.6C115.6,19.2,116.1,19.1,116.8,19.3z"/>
			<path class="st0" d="M133.1,28.8c-0.8,0-1.6,0-2.3,0c-1.6,0-2.4,0.8-2.5,2.4c-0.1,2.6,0,5.1,0,7.6c0,0.3,0,0.6,0,1
				c-1.9,0-3.6,0-5.5,0c0-5.3,0-10.5,0-15.9c1.1,0,2.3,0,3.4,0c0.2,0,0.3,0.2,0.4,0.4c0.2,0.4,0.4,0.9,0.6,1.2
				c0.9-0.5,1.8-1.1,2.8-1.4c1-0.3,2-0.2,3.1-0.3C133.1,25.5,133.1,27.1,133.1,28.8z"/>
			<path class="st0" d="M140.1,23.9c0,5.3,0,10.6,0,15.9c-1.8,0-3.6,0-5.4,0c0-5.2,0-10.5,0-15.9C136.5,23.9,138.2,23.9,140.1,23.9z
				"/>
			<circle class="st0" cx="137.8" cy="20.2" r="2.6"/>
		</g>
	</g>
</g>
<g>
	<circle class="st1" cx="31.2" cy="32.9" r="26.3"/>
	<g>
		<path class="st2" d="M25,20.1c3.5,0,5.7,3.6,4.2,6.9c-0.9,1.9-1.9,3.8-2.9,5.7c-0.1,0.2-0.3,0.6-0.2,0.8c0.1,0.3,0.5,0.7,0.7,0.7
			c0.3,0,0.8-0.3,0.9-0.5c0.8-1.4,1.5-2.9,2.2-4.3c1.1-2.2,2.2-4.4,3.3-6.6c0.9-1.8,2.7-2.8,4.6-2.6c2.1,0.2,3.8,1.6,4.3,3.5
			c0.3,1.1,0.1,2.2-0.4,3.2c-3.1,6.3-6.3,12.6-9.4,18.8c-1.2,2.3-4,3.2-6.2,2.2c-2.3-1.2-3.3-4-2.2-6.4c0.6-1.2,1.2-2.4,1.8-3.6
			c0.2-0.4,0.2-0.7,0-1.2c-1.6-3.2-3.3-6.5-4.9-9.8c-1.4-2.9,0.2-6.2,3.3-6.8C24.4,20.1,24.7,20.1,25,20.1z"/>
		<path class="st2" d="M43.8,26.9c1.2,2.3,2.3,4.6,3.4,6.8c0.3,0.5,0.5,1.1,0.8,1.6c0.8,1.8,0.5,3.9-0.8,5.3
			c-1.3,1.4-3.4,1.8-5.2,1.1c-1.8-0.7-3-2.5-2.9-4.4c0-0.6,0.1-1.3,0.4-1.8c1.3-2.8,2.8-5.6,4.2-8.4C43.7,27,43.7,27,43.8,26.9z"/>
		<path class="st2" d="M18.8,26.9c1.2,2.5,2.5,4.9,3.7,7.3c0.2,0.4,0.4,0.8,0.6,1.2c0.8,1.9,0.4,3.9-1.1,5.4
			c-1.3,1.3-3.5,1.6-5.3,0.8C15,40.8,13.9,38.9,14,37c0.1-0.5,0.2-1.1,0.4-1.6c1.4-2.8,2.7-5.5,4.1-8.2C18.6,27,18.6,27,18.8,26.9z"
			/>
	</g>
</g>
</svg>
