<?xml version="1.0" encoding="utf-8"?>
<!-- Generator: Adobe Illustrator 24.3.0, SVG Export Plug-In . SVG Version: 6.00 Build 0)  -->
<svg version="1.1" id="Layer_1" xmlns="http://www.w3.org/2000/svg" xmlns:xlink="http://www.w3.org/1999/xlink" x="0px" y="0px"
	 viewBox="0 0 31.2 30.8" style="enable-background:new 0 0 31.2 30.8;" xml:space="preserve">
<style type="text/css">
	.st0{fill:#58595B;}
</style>
<g id="_x36_3fxL3.tif">
	<g>
		<path class="st0" d="M2.8,22.5c-0.5-0.2-0.7-0.4-0.7-0.8c0-0.4,0.2-0.7,0.6-0.8c0.1,0,0.3,0,0.4,0c2.1,0,4.2,0,6.4,0
			c0.2,0,0.3,0,0.3-0.3c0.5-2.5,2.3-4.3,4.8-4.7c3.1-0.6,6.1,1.5,6.7,4.6c0,0.3,0.1,0.4,0.4,0.4c2.1,0,4.1,0,6.2,0
			c0.5,0,0.9,0.1,1.1,0.6c0,0.2,0,0.3,0,0.5c-0.2,0.3-0.4,0.5-0.7,0.6C19.8,22.5,11.3,22.5,2.8,22.5z"/>
		<path class="st0" d="M9.2,10c0.3,0,0.5,0.1,0.7,0.4c0.4,0.7,0.9,1.5,1.3,2.2c0.2,0.4,0.1,0.8-0.3,1c-0.4,0.2-0.8,0.1-1.1-0.3
			c-0.5-0.7-0.9-1.5-1.3-2.3C8.3,10.6,8.6,10,9.2,10z"/>
		<path class="st0" d="M21.9,10c0.6,0,1,0.6,0.7,1.1c-0.4,0.8-0.9,1.6-1.4,2.3c-0.2,0.3-0.7,0.4-1,0.2c-0.3-0.2-0.5-0.6-0.3-1
			c0.4-0.8,0.9-1.6,1.3-2.3C21.4,10.1,21.6,10,21.9,10z"/>
		<path class="st0" d="M6.8,17.5c-0.1-0.1-0.3-0.1-0.5-0.2c-0.7-0.4-1.4-0.8-2.1-1.2c-0.4-0.3-0.6-0.7-0.3-1.1
			c0.2-0.4,0.7-0.5,1.1-0.2c0.7,0.4,1.4,0.8,2.1,1.2c0.3,0.2,0.5,0.6,0.4,0.9C7.5,17.2,7.1,17.5,6.8,17.5z"/>
		<path class="st0" d="M24.4,17.5c-0.4,0-0.7-0.2-0.8-0.5c-0.1-0.3,0-0.7,0.3-0.9c0.8-0.5,1.5-0.9,2.3-1.3c0.3-0.2,0.8,0,1,0.3
			c0.2,0.3,0.1,0.8-0.2,1c-0.8,0.5-1.6,0.9-2.4,1.4C24.6,17.4,24.5,17.4,24.4,17.5z"/>
		<path class="st0" d="M14.8,10.3c0-0.4,0-0.8,0-1.2c0-0.5,0.3-0.8,0.8-0.8s0.8,0.3,0.8,0.8c0,0.8,0,1.6,0,2.5
			c0,0.5-0.3,0.8-0.8,0.8c-0.5,0-0.8-0.3-0.8-0.8C14.8,11.2,14.8,10.7,14.8,10.3z"/>
	</g>
</g>
</svg>
