<?xml version="1.0" encoding="utf-8"?>
<!-- Generator: Adobe Illustrator 24.3.0, SVG Export Plug-In . SVG Version: 6.00 Build 0)  -->
<svg version="1.1" id="Layer_1" xmlns="http://www.w3.org/2000/svg" xmlns:xlink="http://www.w3.org/1999/xlink" x="0px" y="0px"
	 viewBox="0 0 21.9 21.7" style="enable-background:new 0 0 21.9 21.7;" xml:space="preserve">
<style type="text/css">
	.st0{fill:#58595B;}
</style>
<g id="_x30_6k4xM.tif">
	<g>
		<path class="st0" d="M11.1,2.1C11.1,2.1,11.2,2.1,11.1,2.1c0.3,0.1,0.4,0.3,0.4,0.5c0,0.2-0.1,0.4-0.3,0.5c-0.7,0.4-1.3,1-1.7,1.7
			C8.7,5.9,8.4,7.1,8.4,8.5c0.1,2.9,2.3,5.3,5.1,5.8c1.8,0.3,3.3-0.1,4.8-1.2c0.1-0.1,0.2-0.2,0.3-0.2c0.4-0.1,0.7,0.3,0.6,0.7
			c-0.3,1-0.8,1.9-1.5,2.7c-1.4,1.7-3.2,2.7-5.3,3.1c-2.5,0.4-4.8-0.2-6.8-1.8c-1.8-1.4-2.9-3.2-3.3-5.4c0-0.3-0.1-0.5-0.1-0.8
			c0-0.4,0-0.8,0-1.2c0,0,0-0.1,0-0.2c0-0.3,0.1-0.6,0.1-0.9c0.4-1.9,1.3-3.5,2.7-4.8c1.2-1.1,2.7-1.9,4.4-2.2
			c0.3,0,0.6-0.1,0.9-0.1C10.6,2.1,10.9,2.1,11.1,2.1z"/>
		<path class="st0" d="M16.6,5.7c0,0.3-0.2,0.5-0.5,0.5c-0.7,0-1.3,0.5-1.5,1.2c0,0.1,0,0.3,0,0.4c0,0.3-0.2,0.5-0.5,0.5
			c-0.3,0-0.5-0.2-0.5-0.5c0-0.9-0.6-1.5-1.6-1.5c-0.3,0-0.5-0.2-0.5-0.5c0-0.3,0.2-0.5,0.5-0.5c0.9-0.1,1.5-0.7,1.5-1.6
			c0-0.3,0.2-0.5,0.5-0.5c0.3,0,0.5,0.2,0.5,0.5c0,0.9,0.7,1.5,1.5,1.6C16.4,5.2,16.6,5.4,16.6,5.7z"/>
		<path class="st0" d="M18.7,3.6c0,0.3-0.2,0.5-0.5,0.5c-0.3,0-0.5-0.2-0.5-0.5c0-0.3,0.2-0.5,0.5-0.5C18.4,3.1,18.7,3.4,18.7,3.6z"
			/>
		<path class="st0" d="M19.7,7.8c0,0.3-0.2,0.5-0.5,0.5c-0.3,0-0.5-0.2-0.5-0.5c0-0.3,0.2-0.5,0.5-0.5C19.5,7.3,19.7,7.5,19.7,7.8z"
			/>
	</g>
</g>
</svg>
